<svg xmlns="http://www.w3.org/2000/svg" width="48" height="48" style="shape-rendering:geometricPrecision;text-rendering:geometricPrecision;image-rendering:optimizeQuality;fill-rule:evenodd;clip-rule:evenodd"><path style="opacity:1" fill="#f19126" d="M11.5 10.5c1.967-.24 3.8.094 5.5 1 .784 3.26.617 6.427-.5 9.5 5.73 1.395 7.397 4.895 5 10.5-3.7 5.176-8.7 7.01-15 5.5-1.47-2.243-2.47-4.743-3-7.5-3.507-2.725-4.007-6.058-1.5-10 2.4-3.902 5.566-6.902 9.5-9z"/><path style="opacity:1" fill="#f2952e" d="M29.5 22.5c2.258.275 2.592 1.275 1 3 .825.886 1.825 1.219 3 1v3c-.722-.418-1.222-1.084-1.5-2-.632 2.031-1.799 3.698-3.5 5-1.593.348-3.26.348-5 0a40.936 40.936 0 0 0-.5-9c-2.152-3.002-3.652-6.336-4.5-10a4.938 4.938 0 0 1 1-2.5 18.436 18.436 0 0 1 6-.5c.393 3.43-.273 6.596-2 9.5 4.386.7 5.72 3.033 4 7 .13 1.059.63 1.892 1.5 2.5.497-2.31.663-4.643.5-7z"/><path style="opacity:1" fill="#feeddd" d="M9.5 15.5c4.965 1.108 5.298 3.274 1 6.5a8.434 8.434 0 0 1-4 .5c.188-2.706 1.188-5.04 3-7z"/><path style="opacity:1" fill="#f39834" d="M42.5 23.5a25.016 25.016 0 0 0-5 3.5c-1.25.74-2.25.573-3-.5l-2-4 1.5-1c1.01.392 1.51 1.058 1.5 2 .641-1.494 1.641-2.494 3-3 2.313.892 2.647.058 1-2.5.13-1.059.63-1.892 1.5-2.5 1.375 2.437 1.875 5.104 1.5 8z"/><path style="opacity:1" fill="#fce7d1" d="M43.5 15.5c.306 2.885-.027 5.552-1 8 .375-2.896-.125-5.563-1.5-8-.87.608-1.37 1.441-1.5 2.5 1.647 2.558 1.313 3.392-1 2.5l-1-2c1.44-2.088 2.106-4.421 2-7-4.803-.41-5.803 1.09-3 4.5-1.365 1.682-2.865 1.849-4.5.5a18.436 18.436 0 0 1-.5-6c1.788.285 3.455-.048 5-1-3.154-1.526-6.487-2.193-10-2a72.444 72.444 0 0 0 .5 12c.67.752 1.504 1.086 2.5 1v2a24.939 24.939 0 0 1-.5 7c-.87-.608-1.37-1.441-1.5-2.5 1.72-3.967.386-6.3-4-7 1.727-2.904 2.393-6.07 2-9.5a18.436 18.436 0 0 0-6 .5 4.938 4.938 0 0 0-1 2.5c.848 3.664 2.348 6.998 4.5 10 .498 2.982.665 5.982.5 9l-2-1c2.397-5.605.73-9.105-5-10.5 1.117-3.073 1.284-6.24.5-9.5-1.7-.906-3.533-1.24-5.5-1 2.031-.472 3.698-1.472 5-3 .456-2.786 2.123-4.119 5-4a482.345 482.345 0 0 1 16 4.5c2.594 2.086 4.594 4.586 6 7.5z"/><path style="opacity:1" fill="#f2942c" d="M37.5 18.5c-2.32 1.726-4.987 2.393-8 2-.996.086-1.83-.248-2.5-1a72.444 72.444 0 0 1-.5-12c3.513-.193 6.846.474 10 2-1.545.952-3.212 1.285-5 1a18.436 18.436 0 0 0 .5 6c1.635 1.349 3.135 1.182 4.5-.5-2.803-3.41-1.803-4.91 3-4.5.106 2.579-.56 4.912-2 7z"/><path style="opacity:1" fill="#f2942d" d="M18.5 5.5h6c.17 1.322-.163 2.489-1 3.5a18.436 18.436 0 0 1-6 .5c-.067-1.459.266-2.792 1-4z"/><path style="opacity:.439" fill="#11965d" d="M43.5 15.5c2.386 4.146 2.552 8.48.5 13A4709.518 4709.518 0 0 1 31.5 36c5.687 1.09 11.02 1.256 16 .5v7a1063.26 1063.26 0 0 0-17 0 4.452 4.452 0 0 1-1.5-2c-.953 2.092-2.286 2.425-4 1l-1-5c-2.622 4.162-6.455 6.162-11.5 6 4.032-1.696 7.366-4.363 10-8a33.734 33.734 0 0 0 10-3.5c.752-.67 1.086-1.504 1-2.5 4.57.223 7.57-1.777 9-6 .973-2.448 1.306-5.115 1-8z"/><path style="opacity:1" fill="#f8b977" d="m37.5 18.5 1 2c-1.359.506-2.359 1.506-3 3 .01-.942-.49-1.608-1.5-2l-1.5 1 2 4h-1c-1.175.219-2.175-.114-3-1 1.592-1.725 1.258-2.725-1-3v-2c3.013.393 5.68-.274 8-2z"/><path style="opacity:1" fill="#e9dcbf" d="M42.5 23.5c-1.43 4.223-4.43 6.223-9 6v-3h1c.75 1.073 1.75 1.24 3 .5a25.016 25.016 0 0 1 5-3.5z"/><path style="opacity:1" fill="#fef6ee" d="M13.5 25.5h5c-.627 4.619-3.293 6.619-8 6 .115-2.447 1.115-4.447 3-6z"/><path style="opacity:1" fill="#f4f2e8" d="M16.5 7.5c-1.302 1.528-2.969 2.528-5 3-3.934 2.098-7.1 5.098-9.5 9-2.507 3.942-2.007 7.275 1.5 10 .53 2.757 1.53 5.257 3 7.5 6.3 1.51 11.3-.324 15-5.5l2 1c1.74.348 3.407.348 5 0 1.701-1.302 2.868-2.969 3.5-5 .278.916.778 1.582 1.5 2 .086.996-.248 1.83-1 2.5a33.734 33.734 0 0 1-10 3.5c-2.634 3.637-5.968 6.304-10 8-2.296-.304-2.629-1.304-1-3 .876.13 1.543-.203 2-1a13.117 13.117 0 0 0-7-1c-1.517-.01-2.684-.677-3.5-2-.353-2.653-1.52-4.652-3.5-6v-11a68.985 68.985 0 0 1 6-8.5c3.355-2.91 7.022-4.076 11-3.5z"/><path style="opacity:.769" fill="#3da270" d="M6.5 38.5a13.117 13.117 0 0 1 7 1c-.457.797-1.124 1.13-2 1-2.053.098-3.72-.569-5-2z"/></svg>