<svg xmlns="http://www.w3.org/2000/svg" width="36" height="36" style="shape-rendering:geometricPrecision;text-rendering:geometricPrecision;image-rendering:optimizeQuality;fill-rule:evenodd;clip-rule:evenodd"><path style="opacity:1" fill="#f29731" d="M31.5 17.5c-1.322-.17-2.489.163-3.5 1l1-6c-2.172 1.009-3.338 2.676-3.5 5-1.28-1.468-2.946-2.135-5-2-.57-3.58-1.904-3.913-4-1-1.147-.318-1.98-.984-2.5-2-.278.916-.778 1.582-1.5 2v-5c2.099-.87 2.432-2.203 1-4 1.667-1.333 3.333-1.333 5 0-.82 2.416-.152 2.582 2 .5 2.228-.82 4.228-.487 6 1a4.932 4.932 0 0 1-3 .5c-.45 2.477.218 4.477 2 6 .596-1.216.763-2.55.5-4 1.011-.837 2.178-1.17 3.5-1 1.276 2.836 1.942 5.836 2 9z"/><path style="opacity:1" fill="#fae7d1" d="M32.5 11.5c.295 2.235-.039 4.235-1 6-.058-3.164-.724-6.164-2-9-1.322-.17-2.489.163-3.5 1 .263 1.45.096 2.784-.5 4-1.782-1.523-2.45-3.523-2-6a4.932 4.932 0 0 0 3-.5c-1.772-1.487-3.772-1.82-6-1-2.152 2.082-2.82 1.916-2-.5-1.667-1.333-3.333-1.333-5 0 1.432 1.797 1.099 3.13-1 4l-1-2c.904-.709 1.237-1.709 1-3 .634-1.447 1.8-2.113 3.5-2A74.231 74.231 0 0 1 26.5 5c2.909 1.406 4.909 3.572 6 6.5z"/><path style="opacity:1" fill="#f2932a" d="m11.5 7.5 1 2v5c.711 1.701 2.045 2.701 4 3v4c-2.127 5.625-6.127 7.458-12 5.5-5.728-7.365-4.728-13.698 3-19a8.435 8.435 0 0 1 4-.5z"/><path style="opacity:1" fill="#fef6ee" d="M7.5 11.5c2.547 1.79 2.214 3.456-1 5-1.152-1.897-.819-3.564 1-5z"/><path style="opacity:1" fill="#fce0c3" d="M20.5 15.5c-1.983-.343-3.317.323-4 2-1.955-.299-3.289-1.299-4-3 .722-.418 1.222-1.084 1.5-2 .52 1.016 1.353 1.682 2.5 2 2.096-2.913 3.43-2.58 4 1z"/><path style="opacity:1" fill="#f2952e" d="M21.5 24.5c-.973-1.291-1.973-1.291-3 0-.886-.825-1.219-1.825-1-3 .179-2.106 1.179-3.772 3-5-.195 2.537.139 5.203 1 8z"/><path style="opacity:1" fill="#f7c084" d="M20.5 15.5c2.054-.135 3.72.532 5 2-2.373.878-3.206 2.545-2.5 5 .67-.752 1.504-1.086 2.5-1a6.541 6.541 0 0 1-3 3h-1c-.861-2.797-1.195-5.463-1-8-1.821 1.228-2.821 2.894-3 5h-1v-4c.683-1.677 2.017-2.343 4-2z"/><path style="opacity:1" fill="#f6ab5a" d="M31.5 17.5v1c-2.319.492-4.319 1.492-6 3-.996-.086-1.83.248-2.5 1-.706-2.455.127-4.122 2.5-5 .162-2.324 1.328-3.991 3.5-5l-1 6c1.011-.837 2.178-1.17 3.5-1z"/><path style="opacity:1" fill="#fef0e1" d="M10.5 18.5h3c-.199 4.213-2.199 5.546-6 4a495.407 495.407 0 0 0 3-4z"/><path style="opacity:1" fill="#f0d8b5" d="M31.5 18.5c-1.411 2.039-3.411 3.039-6 3 1.681-1.508 3.681-2.508 6-3z"/><path style="opacity:.335" fill="#16975f" d="M32.5 11.5c2.45 3.1 2.617 6.434.5 10a137.6 137.6 0 0 0-9.5 5.5c3.986.499 7.986.666 12 .5v5c-5.82-.392-11.487-.392-17 0 .47-4.47-.53-4.97-3-1.5-1.525 1.009-3.192 1.509-5 1.5 2.285-1.618 4.285-3.618 6-6a168.86 168.86 0 0 0 6-2 6.541 6.541 0 0 0 3-3c2.589.039 4.589-.961 6-3v-1c.961-1.765 1.295-3.765 1-6z"/><path style="opacity:1" fill="#f3ecdd" d="M12.5 4.5c.237 1.291-.096 2.291-1 3a8.435 8.435 0 0 0-4 .5c-7.728 5.302-8.728 11.635-3 19 5.873 1.958 9.873.125 12-5.5h1c-.219 1.175.114 2.175 1 3 1.027-1.291 2.027-1.291 3 0h1a168.86 168.86 0 0 1-6 2c-1.715 2.382-3.715 4.382-6 6-1.679.215-2.679-.452-3-2 1.256.039 2.256-.461 3-1.5-1.887-.78-3.554-.613-5 .5a18.49 18.49 0 0 1-3.5-2c-.1-2.153-.933-3.82-2.5-5v-9c2.977-4.98 7.31-7.98 13-9z"/><path style="opacity:.91" fill="#46a778" d="M5.5 29.5c1.446-1.113 3.113-1.28 5-.5-.744 1.039-1.744 1.539-3 1.5l-2-1z"/></svg>