<svg xmlns="http://www.w3.org/2000/svg" width="72" height="72" style="shape-rendering:geometricPrecision;text-rendering:geometricPrecision;image-rendering:optimizeQuality;fill-rule:evenodd;clip-rule:evenodd"><path style="opacity:.607" fill="#fcf4ec" d="M65.5 24.5c2.124 11.61-2.543 18.443-14 20.5-4.386 5.358-10.053 7.69-17 7-2.753 6.416-7.586 10.25-14.5 11.5-1.03.336-1.53 1.003-1.5 2-.997.03-1.664-.47-2-1.5a11.81 11.81 0 0 1 2-3.5c1.495.085 2.495-.581 3-2-3.48-1.306-6.813-1.306-10 0-5.385-2.064-8.385-6.064-9-12a185.863 185.863 0 0 0-3-2v-14c3.755-8.256 9.755-14.423 18-18.5l7-1c1.465-3.567 4.132-5.4 8-5.5a670.292 670.292 0 0 0 22 6.5c4.934 3.098 8.6 7.265 11 12.5z"/><path style="opacity:1" fill="#f19126" d="M28.5 8.5a32.437 32.437 0 0 1 8 .5c1.513 2.454.846 4.12-2 5a12.5 12.5 0 0 1-7 0c-1.257-2.076-.924-3.91 1-5.5z"/><path style="opacity:1" fill="#f29227" d="M59.5 18.5c.217 2.92-.45 5.587-2 8l-2 3c-3.466 1.592-7.133 2.258-11 2-2.688-.524-4.188-2.19-4.5-5-.826-5.09-.492-10.09 1-15 4.74-.75 9.24.25 13.5 3-7.881-.38-10.048 2.953-6.5 10 2.148 3.898 4.314 3.898 6.5 0-.825-.886-1.825-1.219-3-1-.24-1.967.094-3.8 1-5.5 2.538-.796 4.872-.63 7 .5z"/><path style="opacity:1" fill="#f19024" d="M26.5 19.5v8a6.845 6.845 0 0 1-1 4l6 2.5c1.323.816 1.99 1.983 2 3.5v6c-3.786 10.068-11.119 14.234-22 12.5A6.975 6.975 0 0 1 8 53.5a98.85 98.85 0 0 1-2.5-9c-1.634-.468-2.8-1.468-3.5-3-.763-9.648 2.737-17.48 10.5-23.5 5.356-3.826 10.023-3.326 14 1.5z"/><path style="opacity:1" fill="#f19125" d="M28.5 24.5v-7c.11-.617.444-1.117 1-1.5a16.25 16.25 0 0 1 8 0c1.122 3.409 1.289 6.909.5 10.5-4.282 5.641-7.449 4.975-9.5-2z"/><path style="opacity:1" fill="#f8bd7d" d="M28.5 17.5v7l-2 3v-8l2-2z"/><path style="opacity:1" fill="#fbd9b4" d="M59.5 18.5a19.334 19.334 0 0 0 3 5c-2.412.194-3.412 1.527-3 4l-2-1c1.55-2.413 2.217-5.08 2-8z"/><path style="opacity:1" fill="#fef8f1" d="M15.5 23.5h4c.483 6.515-2.517 9.849-9 10-.16-1.7.007-3.366.5-5a31.444 31.444 0 0 0 4.5-5z"/><path style="opacity:1" fill="#fef2e5" d="m57.5 26.5 2 1c.718 1.637.885 3.303.5 5-1.129-1.641-2.629-2.641-4.5-3l2-3z"/><path style="opacity:1" fill="#f2942d" d="M62.5 23.5c1.102 4.247 1.268 8.58.5 13-1 1.333-2 1.333-3 0-.21 1.558-.71 2.892-1.5 4-3.215-2.99-4.215-6.656-3-11 1.871.359 3.371 1.359 4.5 3 .385-1.697.218-3.363-.5-5-.412-2.473.588-3.806 3-4z"/><path style="opacity:1" fill="#fac895" d="M55.5 29.5c-1.215 4.344-.215 8.01 3 11-.709.904-1.709 1.237-3 1 .053-2.56-.947-4.56-3-6-1 .333-1.667 1-2 2l2 4-2 2c.374-4.989-1.626-8.322-6-10v-2c3.867.258 7.534-.408 11-2z"/><path style="opacity:1" fill="#f18e1e" d="M49.5 32.5c1.175-.219 2.175.114 3 1-1.223 1.114-2.556 1.28-4 .5.556-.383.89-.883 1-1.5z"/><path style="opacity:1" fill="#f2932b" d="M44.5 33.5c4.374 1.678 6.374 5.011 6 10 .065.438-.101.772-.5 1-1.941-4.054-2.775-3.72-2.5 1-1.756-1.052-2.423-2.719-2-5 3.58-.266 3.913-1.599 1-4a44.293 44.293 0 0 1-2 3v-6z"/><path style="opacity:1" fill="#f2942d" d="M55.5 41.5c-1 1.333-2 1.333-3 0l-2-4c.333-1 1-1.667 2-2 2.053 1.44 3.053 3.44 3 6z"/><path style="opacity:1" fill="#f29126" d="M43.5 44.5c.734 1.208 1.067 2.541 1 4a5.728 5.728 0 0 1-3 1 58.767 58.767 0 0 0-2.5-7 16.603 16.603 0 0 0 .5 7h-4c.32-4.863-.014-9.53-1-14a5.576 5.576 0 0 0-1-3c4.573-2.052 7.906-.885 10 3.5-2.415 2.974-2.415 5.807 0 8.5z"/><path style="opacity:1" fill="#fce4cb" d="M36.5 34.5h3c-.746 3.81-1.746 3.81-3 0z"/><path style="opacity:1" fill="#fefaf6" d="M21.5 38.5h6c-.263 6.916-3.93 9.916-11 9-.44-4.215 1.227-7.215 5-9z"/><path style="opacity:1" fill="#f7b064" d="m47.5 45.5-3 3c.067-1.459-.266-2.792-1-4 .951-1.419 1.285-3.085 1-5a44.293 44.293 0 0 0 2-3c2.913 2.401 2.58 3.734-1 4-.423 2.281.244 3.948 2 5z"/><path style="opacity:1" fill="#f8c58c" d="M34.5 35.5c.986 4.47 1.32 9.137 1 14l-2-6v-6c.838-.342 1.172-1.008 1-2z"/><path style="opacity:1" fill="#fbd3ab" d="M41.5 49.5h-2a16.603 16.603 0 0 1-.5-7 58.767 58.767 0 0 1 2.5 7z"/><path style="opacity:.382" fill="#12955d" d="M65.5 24.5c4.733 7.89 3.733 15.058-3 21.5-5.328.497-9.661 2.83-13 7a217.163 217.163 0 0 0-6 2.5c4.86.38 9.693.38 14.5 0 1.892.277 3.225 1.277 4 3 2.12-4.182 3.453-3.848 4 1 .442-3.75 2.276-4.75 5.5-3v8h-5c-.333-5.333-.667-5.333-1 0-1.624.14-2.79-.527-3.5-2-.839 1.124-2.005 1.79-3.5 2-2.572-.66-5.239-.827-8-.5-1.342-7.187-2.342-7.02-3 .5h-3c.047-6.353-.62-6.52-2-.5-1.612.72-3.112.554-4.5-.5-.895-2.966-.395-5.633 1.5-8l-1.5-1-7.5 7.5a40.516 40.516 0 0 1-12 3.5c-.03-.997.47-1.664 1.5-2 6.914-1.25 11.747-5.084 14.5-11.5 6.947.69 12.614-1.642 17-7 11.457-2.057 16.124-8.89 14-20.5zm-22 31c-.01 2.5-.678 2.668-2 .5a2.428 2.428 0 0 1 2-.5z"/><path style="opacity:.906" fill="#41a473" d="M18.5 60.5c-2.652.09-4.986-.576-7-2 3.187-1.306 6.52-1.306 10 0-.505 1.419-1.505 2.085-3 2z"/></svg>