<svg xmlns="http://www.w3.org/2000/svg" width="96" height="96" style="shape-rendering:geometricPrecision;text-rendering:geometricPrecision;image-rendering:optimizeQuality;fill-rule:evenodd;clip-rule:evenodd"><path style="opacity:.698" fill="#fcf9f4" d="M51.5 11.5c-.667 0-1 .333-1 1a28.222 28.222 0 0 0-12-.5c-4.426 3.967-3.76 6.467 2 7.5v2c-1.527-.073-2.527.594-3 2l-2 3c-1.42-4.22-4.42-6.22-9-6-5.58 1.209-10.413 3.875-14.5 8-5.382 6.43-8.882 13.764-10.5 22-.213 5.108 2.12 8.108 7 9-.492 13.331 5.84 18.498 19 15.5 6.506-1.66 11.673-5.16 15.5-10.5a37.944 37.944 0 0 0 2.5-8h1c-.247 3.439.086 6.772 1 10v2c-1.333 0-2 .667-2 2-1.343 3.85-3.677 7.017-7 9.5a77.647 77.647 0 0 1-14 6.5c-.876.13-1.543-.203-2-1 1.452-1.44 2.452-3.106 3-5 3.909-.93 4.409-2.263 1.5-4a46.575 46.575 0 0 1-11.5 1C8.116 75.447 4.616 70.447 5 62.5a33.666 33.666 0 0 1-5.5-4v-16c5.003-11.84 13.336-20.674 25-26.5a42.707 42.707 0 0 0 9-1.5c1.898-4.29 5.231-6.623 10-7 3.215.45 5.881 1.783 8 4z"/><path style="opacity:1" fill="#f19024" d="M50.5 12.5c.322 2.222-.345 4.056-2 5.5a18.982 18.982 0 0 1-8 1.5c-5.76-1.033-6.426-3.533-2-7.5a28.222 28.222 0 0 1 12 .5z"/><path style="opacity:.616" fill="#fbf3e9" d="M51.5 11.5c11.662.384 21.83 4.384 30.5 12a24.596 24.596 0 0 1 5.5 10c2.93 15.009-3.07 23.509-18 25.5-2.897 5.117-7.23 8.283-13 9.5h-9v-2h5l2-3c2.23 2.815 3.897 2.482 5-1a22.369 22.369 0 0 0-5-8.5 14.692 14.692 0 0 0 3-3.5l2 5c-.613 3.47.72 5.47 4 6-.175-6.197.825-6.863 3-2a3.646 3.646 0 0 0 1.5-1 17.64 17.64 0 0 0-.5-6c1.337.815 2.337 1.981 3 3.5 1.566.765 2.9.598 4-.5l2-1c2.132-.054 3.465-1.054 4-3 1.72-.522 3.052-1.522 4-3 1.494-5.399 1.327-10.732-.5-16-1.714-1.425-3.047-1.092-4 1a48.982 48.982 0 0 0 1 11 19.568 19.568 0 0 1-3.5-4l-3-2c3.795-3.92 5.628-8.586 5.5-14-3.482-2.521-6.982-2.355-10.5.5-1.974 3.758-.974 5.924 3 6.5-.152 3.987-2.152 5.487-6 4.5-4.144-4.667-4.81-9.667-2-15a18.164 18.164 0 0 1 8 .5c.219-1.175-.114-2.175-1-3-5.089-2.536-10.422-3.702-16-3.5L54 16.5c-1.536 6.25-1.87 12.583-1 19 1.118 3.956 3.618 6.29 7.5 7v1l-1 2h-2c-3.382-3.46-7.382-4.46-12-3l-1 1.5c1.78 3.956 2.446 8.123 2 12.5h-1c.776-8.725-3.224-13.225-12-13.5 3.094-5.2 3.76-10.7 2-16.5l2-3c-.632 6.265 1.035 11.766 5 16.5 4.598 1.09 7.43-.743 8.5-5.5.667-4 .667-8 0-12-3.27-2.262-6.77-2.595-10.5-1v-2c2.77.08 5.437-.42 8-1.5 1.655-1.444 2.322-3.278 2-5.5 0-.667.333-1 1-1z"/><path style="opacity:1" fill="#f29228" d="M74.5 38.5c-4.093 3.14-8.76 4.473-14 4-3.882-.71-6.382-3.044-7.5-7-.87-6.417-.536-12.75 1-19l1.5-1.5c5.578-.202 10.911.964 16 3.5.886.825 1.219 1.825 1 3a18.164 18.164 0 0 0-8-.5c-2.81 5.333-2.144 10.333 2 15 3.848.987 5.848-.513 6-4.5-3.974-.576-4.974-2.742-3-6.5 3.518-2.855 7.018-3.021 10.5-.5.128 5.414-1.705 10.08-5.5 14z"/><path style="opacity:1" fill="#f18f22" d="M35.5 26.5c1.76 5.8 1.094 11.3-2 16.5 8.776.275 12.776 4.775 12 13.5a37.944 37.944 0 0 1-2.5 8c-3.827 5.34-8.994 8.84-15.5 10.5-13.16 2.998-19.492-2.169-19-15.5-4.88-.892-7.213-3.892-7-9 1.618-8.236 5.118-15.57 10.5-22 4.087-4.125 8.92-6.791 14.5-8 4.58-.22 7.58 1.78 9 6z"/><path style="opacity:1" fill="#f19023" d="M37.5 23.5c.473-1.406 1.473-2.073 3-2 3.73-1.595 7.23-1.262 10.5 1 .667 4 .667 8 0 12-1.07 4.757-3.902 6.59-8.5 5.5-3.965-4.734-5.632-10.235-5-16.5z"/><path style="opacity:1" fill="#f29227" d="M84.5 48.5c-1.953 1.499-3.62 1.166-5-1-.921 1.531-.588 2.865 1 4-.535 1.946-1.868 2.946-4 3-2.602-4.267-3.602-8.767-3-13.5a8.434 8.434 0 0 1 4-.5 19.568 19.568 0 0 0 3.5 4 48.982 48.982 0 0 1-1-11c.953-2.092 2.286-2.425 4-1 1.827 5.268 1.994 10.601.5 16z"/><path style="opacity:1" fill="#fef8f1" d="M21.5 31.5c4.713-.032 6.213 2.3 4.5 7-2.215 5.023-6.048 7.356-11.5 7-.833-6.334 1.5-11 7-14z"/><path style="opacity:1" fill="#fcd9b6" d="m74.5 38.5 3 2a8.434 8.434 0 0 0-4 .5c-.602 4.733.398 9.233 3 13.5l-2 1a21.034 21.034 0 0 0-2-7c-1.189-.929-2.522-1.262-4-1-.8 1.542-1.134 3.209-1 5a45.577 45.577 0 0 0-7-9v-1c5.24.473 9.907-.86 14-4z"/><path style="opacity:1" fill="#f2932b" d="M57.5 45.5v5a14.692 14.692 0 0 1-3 3.5 22.369 22.369 0 0 1 5 8.5c-1.103 3.482-2.77 3.815-5 1a13.488 13.488 0 0 0-2.5-6c.152 2.947.319 5.947.5 9h-5c-.914-3.228-1.247-6.561-1-10 .446-4.377-.22-8.544-2-12.5l1-1.5c4.618-1.46 8.618-.46 12 3z"/><path style="opacity:.788" fill="#1a9760" d="M87.5 33.5c8.136 17.228 2.802 27.728-16 31.5-5.7 7.255-13.033 9.922-22 8-5.651 9.488-13.985 13.988-25 13.5a77.647 77.647 0 0 0 14-6.5c3.323-2.483 5.657-5.65 7-9.5a255.6 255.6 0 0 0 11-2c5.77-1.217 10.103-4.383 13-9.5 14.93-1.991 20.93-10.491 18-25.5z"/><path style="opacity:1" fill="#f29632" d="M68.5 47.5c-3.194.324-4.194-.842-3-3.5 1.634-.493 3.3-.66 5-.5-.027 1.7-.694 3.033-2 4z"/><path style="opacity:1" fill="#fee8d2" d="M48.5 46.5a8.434 8.434 0 0 1 4 .5c1.333 2.333.667 3.333-2 3-1.323-.816-1.99-1.983-2-3.5z"/><path style="opacity:1" fill="#fad5af" d="M57.5 45.5h2v10l-2-5v-5z"/><path style="opacity:1" fill="#f2932b" d="M60.5 43.5a45.577 45.577 0 0 1 7 9 17.64 17.64 0 0 1 .5 6c-.414.457-.914.79-1.5 1-2.175-4.863-3.175-4.197-3 2-3.28-.53-4.613-2.53-4-6v-10l1-2z"/><path style="opacity:1" fill="#f2942c" d="M68.5 47.5c1.478-.262 2.811.071 4 1a21.034 21.034 0 0 1 2 7c-1.1 1.098-2.434 1.265-4 .5-.663-1.519-1.663-2.685-3-3.5-.134-1.791.2-3.458 1-5z"/><path style="opacity:1" fill="#fcd8b4" d="M84.5 48.5c-.948 1.478-2.28 2.478-4 3-1.588-1.135-1.921-2.469-1-4 1.38 2.166 3.047 2.499 5 1z"/><path style="opacity:1" fill="#fcdab8" d="M61.5 49.5c2.332.662 3 1.995 2 4-1.611-.82-2.278-2.154-2-4z"/><path style="opacity:1" fill="#fef7f0" d="M30.5 50.5c6.434-.407 8.267 2.26 5.5 8-3.191 4.17-7.358 6.004-12.5 5.5-2.485-2.284-2.651-4.784-.5-7.5 2.114-2.62 4.614-4.62 7.5-6z"/><path style="opacity:1" fill="#f9ca99" d="m54.5 63.5-2 3c-.181-3.053-.348-6.053-.5-9a13.488 13.488 0 0 1 2.5 6z"/><path style="opacity:1" fill="#a3d2ba" d="M47.5 68.5h9a255.6 255.6 0 0 1-11 2c0-1.333.667-2 2-2z"/><path style="opacity:.415" fill="#08935b" d="M53.5 74.5a5.576 5.576 0 0 1 3 1c1.638 3.4 1.804 6.734.5 10-2.87 1.575-5.037.908-6.5-2 .404-2.2.57-4.534.5-7 .995-.566 1.828-1.233 2.5-2z"/><path style="opacity:.526" fill="#08935b" d="M58.5 74.5c2.292-.256 4.46.077 6.5 1-.947 3.5-1.447 7.167-1.5 11h-4a73.246 73.246 0 0 0-1-12z"/><path style="opacity:.51" fill="#04945a" d="M66.5 74.5h3c.333 10.667.667 10.667 1 0h3a50.441 50.441 0 0 1-.5 10c-1.523 2.12-3.356 2.454-5.5 1a31.121 31.121 0 0 1-1-11z"/><path style="opacity:.587" fill="#08935a" d="M75.5 74.5c6.83.338 8.998 3.672 6.5 10-2.168 1.964-4.5 2.298-7 1-.755-3.755-.589-7.422.5-11z"/><path style="opacity:.401" fill="#05945b" d="M84.5 74.5c.996-.086 1.83.248 2.5 1a60.94 60.94 0 0 1 .5 11h-3v-12z"/><path style="opacity:.358" fill="#04945b" d="M95.5 75.5v10c-4.762 1.917-7.095.25-7-5 .088-4.874 2.422-6.54 7-5z"/><path style="opacity:.586" fill="#2f9d67" d="M25.5 80.5c-3.916.475-7.25-.525-10-3 3.875.144 7.708-.19 11.5-1 2.909 1.737 2.409 3.07-1.5 4z"/></svg>