<svg xmlns="http://www.w3.org/2000/svg" width="120" height="120" style="shape-rendering:geometricPrecision;text-rendering:geometricPrecision;image-rendering:optimizeQuality;fill-rule:evenodd;clip-rule:evenodd"><path style="opacity:.739" fill="#fcf8f2" d="M109.5 41.5c1.59 9.768-.41 18.601-6 26.5-5.16 3.413-10.827 5.413-17 6-7.036 10.015-16.703 14.348-29 13-2.002 4.996-5.002 9.33-9 13-5.98 3.357-11.98 6.19-18 8.5-.997.03-1.664-.47-2-1.5a37.785 37.785 0 0 0 4-6.5c2.182-.8 3.85-2.3 5-4.5-6.273.37-12.607.536-19 .5-8.754-2.834-12.42-8.834-11-18-3.481-1.058-6.148-3.058-8-6v-19c5.6-13.333 14.6-23.833 27-31.5a52.514 52.514 0 0 1 15-3c3.718-7.521 9.718-10.188 18-8a8.905 8.905 0 0 1 4 3c15.94.417 29.44 6.25 40.5 17.5a73.115 73.115 0 0 1 5.5 10z"/><path style="opacity:1" fill="#f19022" d="M49.5 14.5c4.436-.29 8.77.21 13 1.5 1.421 4.298-.246 6.965-5 8a30.499 30.499 0 0 1-11 0c-1.394-.956-2.06-2.29-2-4 1.152-2.318 2.819-4.151 5-5.5z"/><path style="opacity:1" fill="#f19023" d="M91.5 49.5a26.525 26.525 0 0 1-6 3.5c.948.483 1.948.65 3 .5.745 3.43-.589 5.097-4 5-1.53-.14-2.53-.806-3-2 .453-.958 1.12-1.792 2-2.5-6.181.72-11.348-1.113-15.5-5.5a88.042 88.042 0 0 1-1.5-21c-.26-7.906 3.407-10.74 11-8.5 5.242 1.127 9.909 3.293 14 6.5l-2.5 1c-2.808-.886-5.64-1.053-8.5-.5-2.73 5.549-2.564 11.049.5 16.5 4.445 4.411 7.945 3.744 10.5-2-4.853-.675-6.687-3.342-5.5-8 4.082-4.21 8.582-4.877 13.5-2 .939 7.795-1.727 14.128-8 19z"/><path style="opacity:1" fill="#f18f21" d="M45.5 37.5c.57 5.651-.43 10.984-3 16 9.389.722 14.389 5.722 15 15a71.277 71.277 0 0 1-3 11c-4.605 7.488-11.271 12.321-20 14.5-16.284 3.541-24.284-2.959-24-19.5-5.678-1.36-8.345-5.027-8-11 2.01-14.517 9.01-26.017 21-34.5 6.75-4.617 13.25-4.45 19.5.5a22.388 22.388 0 0 1 2.5 8z"/><path style="opacity:1" fill="#f18f22" d="M64.5 29.5a84.938 84.938 0 0 1-.5 13c-1.757 7.988-6.09 9.988-13 6a91.131 91.131 0 0 1-4.5-12c-.759-7.908 2.908-11.575 11-11 3.128.06 5.46 1.394 7 4z"/><path style="opacity:1" fill="#f29227" d="M94.5 66.5a198.16 198.16 0 0 1-4-12.5 11.81 11.81 0 0 1 2-3.5c1.238-.912 2.572-1.08 4-.5a18.78 18.78 0 0 1 4.5 5.5 156.36 156.36 0 0 1-1-14c2.522-2.826 4.522-2.493 6 1 .87 6.417.536 12.75-1 19-2.54 1.377-4.54.71-6-2a28.885 28.885 0 0 1 1 7c-1.969 2.624-3.802 2.624-5.5 0z"/><path style="opacity:1" fill="#fff8f2" d="M26.5 39.5c6-.498 8.166 2.169 6.5 8-2.667 6.582-7.5 9.416-14.5 8.5-1.091-2.064-1.258-4.23-.5-6.5 1.978-4.138 4.811-7.471 8.5-10z"/><path style="opacity:1" fill="#feeddd" d="M66.5 27.5a88.042 88.042 0 0 0 1.5 21c4.152 4.387 9.319 6.22 15.5 5.5-.88.708-1.547 1.542-2 2.5l-2 1c-1.135-1.713-2.802-2.38-5-2-.166 6.342 0 12.675.5 19 .422 1.926 1.59 2.926 3.5 3l-3 3c.009-1.808-.491-3.475-1.5-5-1.848-2.51-3.681-5.01-5.5-7.5 5.852-5.886 5.185-10.886-2-15a50.441 50.441 0 0 0-10-.5c1.822 9.526 2.488 19.192 2 29-.81-1.792-1.31-3.792-1.5-6-.2 1.82-1.034 3.153-2.5 4a71.277 71.277 0 0 0 3-11c-.611-9.278-5.611-14.278-15-15 2.57-5.016 3.57-10.349 3-16 .667 0 1-.333 1-1a91.131 91.131 0 0 0 4.5 12c6.91 3.988 11.243 1.988 13-6 .499-4.32.666-8.654.5-13l2-2z"/><path style="opacity:.805" fill="#19975f" d="M109.5 41.5c7.244 11.872 6.244 23.039-3 33.5l-5 3a91.8 91.8 0 0 0-13 3.5c-2.283 3.988-5.616 6.821-10 8.5-5.656 1.612-11.322 1.945-17 1-6.732 12.037-17.065 17.87-31 17.5 6.02-2.31 12.02-5.143 18-8.5 3.998-3.67 6.998-8.004 9-13 12.297 1.348 21.964-2.985 29-13 6.173-.587 11.84-2.587 17-6 5.59-7.899 7.59-16.732 6-26.5z"/><path style="opacity:1" fill="#fcdec0" d="M91.5 49.5c0 .667.333 1 1 1a11.81 11.81 0 0 0-2 3.5 198.16 198.16 0 0 0 4 12.5h-1c-1.1-1.777-1.934-3.777-2.5-6-3.159-1.67-5.326-.837-6.5 2.5.019 1.833.685 3.333 2 4.5-.667 0-1 .333-1 1a88.955 88.955 0 0 0-6-11l2-1c.47 1.194 1.47 1.86 3 2 3.411.097 4.745-1.57 4-5a4.932 4.932 0 0 1-3-.5 26.525 26.525 0 0 0 6-3.5z"/><path style="opacity:1" fill="#f29227" d="M75.5 80.5c-1.811 1.322-3.811 1.822-6 1.5-1.31-3.6-2.81-7.1-4.5-10.5.29 3.973.79 7.973 1.5 12a24.939 24.939 0 0 1-7-.5c-.556-.383-.89-.883-1-1.5.488-9.808-.178-19.474-2-29 3.35-.165 6.683.002 10 .5 7.185 4.114 7.852 9.114 2 15 1.819 2.49 3.652 4.99 5.5 7.5 1.009 1.525 1.509 3.192 1.5 5z"/><path style="opacity:1" fill="#f2932a" d="M79.5 57.5a88.955 88.955 0 0 1 6 11c.744 3.45-.59 5.116-4 5 .262-1.478-.071-2.811-1-4a345.557 345.557 0 0 1-2 8c-1.91-.074-3.078-1.074-3.5-3a180.95 180.95 0 0 1-.5-19c2.198-.38 3.865.287 5 2z"/><path style="opacity:1" fill="#fef4ea" d="M61.5 58.5h5v4c-3.45.744-5.116-.59-5-4z"/><path style="opacity:1" fill="#f29228" d="M93.5 66.5c.415 2.448-.585 3.781-3 4-1.917-.254-3.25-1.254-4-3-1.315-1.167-1.981-2.667-2-4.5 1.174-3.337 3.341-4.17 6.5-2.5.566 2.223 1.4 4.223 2.5 6z"/><path style="opacity:1" fill="#fde6d1" d="M77.5 61.5c2.039 1.411 3.039 3.411 3 6h-3v-6z"/><path style="opacity:1" fill="#fff8f2" d="M37.5 63.5c8.43-1.072 10.93 2.261 7.5 10-4.372 5.105-9.872 7.272-16.5 6.5-1.687-1.913-2.187-4.08-1.5-6.5 2.738-4.24 6.238-7.574 10.5-10z"/><path style="opacity:.495" fill="#08945a" d="M73.5 93.5c2.62-.268 5.12.065 7.5 1a74.596 74.596 0 0 0-1.5 13h-5c-.277-2.948.056-5.781 1-8.5a4.932 4.932 0 0 0-3-.5c-.134-1.791.2-3.458 1-5z"/><path style="opacity:.525" fill="#09935b" d="M83.5 93.5c2.878.754 5.711 1.088 8.5 1 .978 4.4.478 8.567-1.5 12.5-6.197 1.5-8.864-1-8-7.5a22.78 22.78 0 0 1 1-6z"/><path style="opacity:.53" fill="#04935a" d="M95.5 93.5c7.612.554 10.112 4.554 7.5 12-2.76 2.203-5.76 2.536-9 1-.998-4.644-.498-8.977 1.5-13z"/><path style="opacity:.267" fill="#04945a" d="M106.5 93.5c.996-.086 1.829.248 2.5 1a84.9 84.9 0 0 1 .5 13h-4a53.806 53.806 0 0 1 1-14z"/><path style="opacity:.591" fill="#04945a" d="M119.5 95.5v11c-5.777 2.603-8.777.77-9-5.5.466-6.555 3.466-8.389 9-5.5z"/><path style="opacity:.535" fill="#2a9b64" d="M32.5 100.5c-5.406.76-10.073-.573-14-4 6.393.036 12.727-.13 19-.5-1.15 2.2-2.818 3.7-5 4.5z"/><path style="opacity:.487" fill="#09945b" d="M66.5 93.5c4.692.22 5.692 2.053 3 5.5 2.146.479 3.146 1.812 3 4a12.011 12.011 0 0 1-2.5 5.5 66.705 66.705 0 0 0-5.5-2c-1.33-1.847-.997-3.347 1-4.5-2.67-3.162-2.337-5.995 1-8.5z"/></svg>