<svg xmlns="http://www.w3.org/2000/svg" width="152" height="152" style="shape-rendering:geometricPrecision;text-rendering:geometricPrecision;image-rendering:optimizeQuality;fill-rule:evenodd;clip-rule:evenodd"><path style="opacity:.813" fill="#fcf7f2" d="M137.5 51.5c6.523 24.816-2.811 38.983-28 42.5-8.926 13.038-21.26 18.204-37 15.5-2.916 10.754-9.583 18.254-20 22.5a446.3 446.3 0 0 0-16 5.5c-1.074-.751-1.24-1.751-.5-3 2.454-1.941 4.287-4.275 5.5-7 2.621-.621 4.288-2.288 5-5l-2.5-1a122.75 122.75 0 0 1-20.5 1 22.572 22.572 0 0 1-8-4 1492.482 1492.482 0 0 1-5-6 2.427 2.427 0 0 0-.5-2c-.654 1.196-1.154 1.196-1.5 0a59.1 59.1 0 0 1 1-12c-4.44-.776-7.773-3.11-10-7v-22c7.198-20.035 20.531-34.535 40-43.5 4.33-1.456 8.663-1.623 13-.5 4.475-10.067 11.808-13.9 22-11.5 2.862.93 5.195 2.597 7 5 20.024-.065 36.857 7.102 50.5 21.5a42.486 42.486 0 0 1 5.5 11z"/><path style="opacity:1" fill="#f19023" d="M62.5 18.5a51.29 51.29 0 0 1 16 1.5c1.896 1.808 2.396 3.975 1.5 6.5-5.862 4.09-12.362 5.59-19.5 4.5-3.921-1.747-4.921-4.58-3-8.5 1.71-1.387 3.377-2.72 5-4zM117.5 62.5l-9 4.5a72.442 72.442 0 0 1-12 .5c-4.048.059-7.215-1.608-9.5-5-2.648-6.741-3.814-13.741-3.5-21a88.078 88.078 0 0 1 2.5-15l2.5-2.5a31.315 31.315 0 0 1 14 1l12 5c.837 1.011 1.17 2.178 1 3.5-4.348-.41-8.681-.576-13-.5-2.388 2.306-3.388 5.14-3 8.5a32.13 32.13 0 0 0 3.5 13c5.469 5.76 9.635 4.76 12.5-3-5.438-1.21-7.605-4.544-6.5-10 4.379-4.055 9.545-5.555 15.5-4.5l2.5 2.5c.611 4.182-.056 8.182-2 12a129.796 129.796 0 0 1-7.5 11z"/><path style="opacity:1" fill="#f18e1f" d="M57.5 44.5c1.876 8.505.543 16.505-4 24 14.122.463 20.456 7.796 19 22-3.775 15.274-13.442 24.774-29 28.5-20.916 4.747-30.916-3.42-30-24.5-7.365-1.53-10.698-6.03-10-13.5 1.653-16.668 8.986-30.335 22-41a40.872 40.872 0 0 1 13-7c9.997-2.163 16.33 1.67 19 11.5z"/><path style="opacity:1" fill="#f18e1f" d="M81.5 36.5a111.86 111.86 0 0 1-1 19c-1.363 7.35-5.696 10.183-13 8.5-3.307-2.778-5.474-6.278-6.5-10.5a91.69 91.69 0 0 1-1.5-15c.79-1.294 1.79-2.46 3-3.5 4.831-2.062 9.831-2.729 15-2 1.593.949 2.926 2.115 4 3.5z"/><path style="opacity:1" fill="#f9ca9d" d="M81.5 36.5c.951 1.419 1.284 3.085 1 5a72.444 72.444 0 0 1-.5 12c-.278.916-.778 1.583-1.5 2a111.86 111.86 0 0 0 1-19z"/><path style="opacity:1" fill="#f19125" d="M119.5 83.5a197.8 197.8 0 0 0-5-15c.627-2.287 1.96-3.954 4-5a8.435 8.435 0 0 1 4 .5 54.429 54.429 0 0 1 6 6.5l1-1.5a438.217 438.217 0 0 1-4-12.5c2.779-8.565 5.946-8.898 9.5-1 1.138 7.876.471 15.543-2 23-1.049 1.017-2.216 1.184-3.5.5l-4.5-4.5a337.027 337.027 0 0 1 2 10c-3.118 2.942-5.618 2.609-7.5-1z"/><path style="opacity:1" fill="#fef9f4" d="M33.5 50.5c8.005-1.158 10.839 2.175 8.5 10-3.412 7.775-9.245 11.608-17.5 11.5-1.978-2.497-2.478-5.33-1.5-8.5 2.257-5.415 5.757-9.749 10.5-13z"/><path style="opacity:.004" fill="#86c2aa" d="M139.5 52.5c1.333.667 1.333.667 0 0z"/><path style="opacity:1" fill="#fef1e5" d="M59.5 38.5a91.69 91.69 0 0 0 1.5 15c1.026 4.222 3.193 7.722 6.5 10.5 7.304 1.683 11.637-1.15 13-8.5.722-.417 1.222-1.084 1.5-2 .499-3.986.665-7.986.5-12h1c-.314 7.259.852 14.259 3.5 21 2.285 3.392 5.452 5.059 9.5 5l8 2-2 2-2 1c-1.138-2.767-2.972-3.434-5.5-2-.667 7-.667 14 0 21 .153 2.65.987 4.984 2.5 7l-2 3c-1.822-5.805-4.822-10.971-9-15.5 8.817-7.912 7.817-14.245-3-19-3.923-.793-7.756-.626-11.5.5.015 3.07.682 6.07 2 9 .5 4.655.666 9.322.5 14h-2c1.456-14.204-4.878-21.537-19-22 4.543-7.495 5.876-15.495 4-24l2-6z"/><path style="opacity:.833" fill="#19975f" d="m137.5 51.5 2 2a30.618 30.618 0 0 1 3 3.5 3.647 3.647 0 0 0-1 1.5c.684 2.919 2.018 5.419 4 7.5-1.333 4-1.333 8 0 12-2.67 5.385-5.003 10.551-7 15.5-2.792-.048-4.625 1.285-5.5 4l-1-1a56.833 56.833 0 0 0-7.5 5c-3.942-.69-7.942-.69-12 0a4.934 4.934 0 0 1-.5 3c-5.869 6.697-12.37 11.031-19.5 13-3-2.667-6-2.667-9 0-1.82-2.411-3.82-2.578-6-.5-6.956 12.04-17.122 18.54-30.5 19.5-1.762.444-1.595.944.5 1.5-3.858.81-7.524.643-11-.5a446.3 446.3 0 0 1 16-5.5c10.417-4.246 17.084-11.746 20-22.5 15.74 2.704 28.074-2.462 37-15.5 25.189-3.517 34.523-17.684 28-42.5z"/><path style="opacity:1" fill="#f19126" d="M95.5 101.5c-2.184 2.085-4.851 3.085-8 3 .067-1.459-.266-2.792-1-4a29.754 29.754 0 0 0-3.5-9c-.448 3.57.052 6.904 1.5 10 .213 1.644-.12 3.144-1 4.5-3.17.978-6.003.478-8.5-1.5a98.433 98.433 0 0 1-.5-14c.166-4.678 0-9.345-.5-14-1.318-2.93-1.985-5.93-2-9 3.744-1.126 7.577-1.293 11.5-.5 10.817 4.755 11.817 11.088 3 19 4.178 4.529 7.178 9.695 9 15.5z"/><path style="opacity:1" fill="#fde0c6" d="M117.5 62.5c0 .667.333 1 1 1-2.04 1.046-3.373 2.713-4 5a197.8 197.8 0 0 1 5 15h-1a89.951 89.951 0 0 1-4-7.5c-3.723-1.312-6.056-.145-7 3.5a20.646 20.646 0 0 0 3 8l-2 4c-1.118-7.029-3.784-13.362-8-19l2-1c-.086.996.248 1.83 1 2.5 5.633 1.99 8.633.156 9-5.5a24.93 24.93 0 0 0-8 1l-8-2a72.442 72.442 0 0 0 12-.5l9-4.5z"/><path style="opacity:1" fill="#f19025" d="m102.5 71.5 2-2a24.93 24.93 0 0 1 8-1c-.367 5.656-3.367 7.49-9 5.5-.752-.67-1.086-1.504-1-2.5z"/><path style="opacity:1" fill="#feefe0" d="M78.5 73.5c4.333-.333 6.333 1.667 6 6-5.238.767-7.238-1.233-6-6z"/><path style="opacity:1" fill="#f19125" d="M118.5 83.5c-.004 6.284-2.671 7.618-8 4a20.646 20.646 0 0 1-3-8c.944-3.645 3.277-4.812 7-3.5a89.951 89.951 0 0 0 4 7.5z"/><path style="opacity:1" fill="#fefaf6" d="M48.5 80.5c10.755-.753 13.589 3.58 8.5 13-5.51 6.06-12.343 8.559-20.5 7.5-2.492-3.308-2.66-6.808-.5-10.5 3.598-4.194 7.765-7.528 12.5-10z"/><path style="opacity:1" fill="#f2942d" d="M100.5 72.5c4.216 5.638 6.882 11.971 8 19-.645 1.312-1.645 2.312-3 3l-3-6a34.25 34.25 0 0 0-1.5 8c-.816 1.323-1.983 1.99-3.5 2-1.513-2.016-2.347-4.35-2.5-7-.667-7-.667-14 0-21 2.528-1.434 4.362-.767 5.5 2z"/><path style="opacity:1" fill="#fde0c5" d="M97.5 77.5c3.139 1.585 4.806 4.252 5 8h-4l-1-8z"/><path style="opacity:1" fill="#fcd8b6" d="M86.5 100.5c-1.424-1.531-2.091-1.198-2 1-1.448-3.096-1.948-6.43-1.5-10a29.754 29.754 0 0 1 3.5 9z"/><path style="opacity:.004" fill="#7bb3a2" d="M10.5 112.5c-.667.667-.667.667 0 0z"/><path style="opacity:.004" fill="#82b7a7" d="M15.5 118.5c-.667.667-.667.667 0 0z"/><path style="opacity:.538" fill="#05945a" d="M151.5 120.5v14a20.303 20.303 0 0 1-6.5 3c-1.736-1.563-3.236-3.23-4.5-5v-9c2.694-4.018 6.361-5.018 11-3zm-5 4c1.122 1.788 1.289 3.788.5 6-1.689-1.82-1.855-3.82-.5-6z"/><path style="opacity:.535" fill="#0a965b" d="M92.5 119.5a60.93 60.93 0 0 1 11 .5l1.5 1.5c2-2.667 4-2.667 6 0 1.401-1.692 3.234-2.359 5.5-2a98.432 98.432 0 0 1-.5 14c-3.333 5.333-6.667 5.333-10 0l-1-10c-1.356.88-2.856 1.214-4.5 1a72.367 72.367 0 0 1-.5 12c-2.24 1.369-4.073.869-5.5-1.5l1-1-2-8c2.432-1.087 2.098-1.587-1-1.5v-5z"/><path style="opacity:.94" fill="#04965b" d="M133.5 119.5h5a145.053 145.053 0 0 1-.5 17c-1.113 1.211-2.28 1.211-3.5 0a73.133 73.133 0 0 1-1-17z"/><path style="opacity:.599" fill="#09965b" d="M125.5 118.5c5.645 2.963 7.478 7.63 5.5 14-2.776 4.145-6.443 5.479-11 4a145.053 145.053 0 0 1-.5-17c2.235.295 4.235-.039 6-1zm-1 6c2.44 2.073 2.606 4.406.5 7 .804-2.328.637-4.661-.5-7z"/><path style="opacity:.004" fill="#95bdb3" d="M117.5 121.5c1.141 3.14 1.308 6.473.5 10a50.464 50.464 0 0 1-.5-10z"/><path style="opacity:.004" fill="#aec7c4" d="M140.5 123.5c-1.025-.397-1.192-1.063-.5-2 .464.594.631 1.261.5 2z"/><path style="opacity:.988" fill="#229860" d="M41.5 127.5c-6.998 1.001-12.998-.666-18-5 6.867.239 13.7-.095 20.5-1l2.5 1c-.712 2.712-2.379 4.379-5 5z"/><path style="opacity:.004" fill="#89baab" d="M103.5 125.5c1.122 1.788 1.289 3.788.5 6a18.453 18.453 0 0 1-.5-6z"/><path style="opacity:.004" fill="#0c9e58" d="M101.5 125.5c1.134 2.466 1.301 5.133.5 8a32.462 32.462 0 0 1-.5-8z"/><path style="opacity:.544" fill="#09955b" d="M83.5 119.5a18.452 18.452 0 0 1 6 .5c2.667 2 2.667 4 0 6l3 3c-1.333 1.333-1.333 2.667 0 4-2.191 1.394-3.525 2.894-4 4.5a26.551 26.551 0 0 1-7.5-3c-.863-2.249-.363-4.082 1.5-5.5-2.592-3.417-2.259-6.584 1-9.5z"/><path style="opacity:.004" fill="#9ec2ba" d="M140.5 132.5a2.428 2.428 0 0 1-.5 2c-.692-.937-.525-1.603.5-2z"/></svg>