<svg xmlns="http://www.w3.org/2000/svg" width="60" height="60" style="shape-rendering:geometricPrecision;text-rendering:geometricPrecision;image-rendering:optimizeQuality;fill-rule:evenodd;clip-rule:evenodd"><path style="opacity:.537" fill="#faf0e4" d="M54.5 20.5a50.441 50.441 0 0 1-.5 10c-.383.556-.883.89-1.5 1v-1c1.08-3.243 1.247-6.576.5-10-1-1.333-2-1.333-3 0a52.61 52.61 0 0 1 0 7c-.717-.544-1.217-1.21-1.5-2l-2-2c2.368-2.456 3.368-5.456 3-9-2.292-.256-4.46.077-6.5 1-.865 2.388-.032 3.888 2.5 4.5-1.552 3.151-3.385 3.318-5.5.5-3.067-5.438-1.567-8.272 4.5-8.5-3.823-2.832-7.49-2.998-11-.5l-2 2c-3.529-.797-3.695-1.797-.5-3 .483-.948.65-1.948.5-3a32.437 32.437 0 0 0-8 .5 4.453 4.453 0 0 0-2 1.5 14.974 14.974 0 0 0 3 3.5c-1.102 2.4-1.269 4.9-.5 7.5 1.834 2.938 3.334 5.938 4.5 9 0 .667-.333 1-1 1-1.187-2.475-3.187-3.475-6-3a27.36 27.36 0 0 0 .5-11c-2.53-4.29-6.03-5.123-10.5-2.5-5.939 4.222-9.272 9.888-10 17-.592 3.202.575 5.368 3.5 6.5.568 8.602 5.068 11.436 13.5 8.5 4.768-1.036 7.768-3.87 9-8.5l2 4h3c-.16-1.7.007-3.366.5-5 .653 4.044 2.153 4.71 4.5 2 .992.172 1.658-.162 2-1a4.932 4.932 0 0 1 .5-3c.417 1.256 1.25 1.923 2.5 2-.359 1.871-1.359 3.371-3 4.5a28.335 28.335 0 0 1-11 3 21.52 21.52 0 0 1-5 6c-2.948 1.237-5.615 2.737-8 4.5-.876.13-1.543-.203-2-1a186.2 186.2 0 0 0 2-3c.79-.283 1.456-.783 2-1.5a32.437 32.437 0 0 0-8-.5 9.173 9.173 0 0 1-4.5-2 42.552 42.552 0 0 1-3.5-8 44.354 44.354 0 0 0-2-1v-13c3.09-6.258 7.757-11.092 14-14.5 4.327.157 7.66-1.51 10-5l3.5-.5A149.853 149.853 0 0 1 47.5 11c3.348 2.501 5.682 5.668 7 9.5z"/><path style="opacity:1" fill="#f19023" d="m46.5 23.5-3 2h-8c-1.604-.787-2.27-2.12-2-4v-10c3.51-2.498 7.177-2.332 11 .5-6.067.228-7.567 3.062-4.5 8.5 2.115 2.818 3.948 2.651 5.5-.5-2.532-.612-3.365-2.112-2.5-4.5 2.04-.923 4.208-1.256 6.5-1 .368 3.544-.632 6.544-3 9z"/><path style="opacity:1" fill="#f29228" d="M31.5 13.5v7a9.173 9.173 0 0 1-2 4.5c2.525.424 4.525 1.59 6 3.5v3c-1.186 1.461-1.186 2.795 0 4 .432 1.21 1.099 2.21 2 3-2.347 2.71-3.847 2.044-4.5-2-.493 1.634-.66 3.3-.5 5h-3c.317-4.202-.017-8.202-1-12-1.166-3.062-2.666-6.062-4.5-9-.769-2.6-.602-5.1.5-7.5a14.974 14.974 0 0 1-3-3.5 4.453 4.453 0 0 1 2-1.5 32.437 32.437 0 0 1 8-.5 4.932 4.932 0 0 1-.5 3c-3.195 1.203-3.029 2.203.5 3z"/><path style="opacity:1" fill="#f19024" d="M27.5 30.5v7c-1.232 4.63-4.232 7.464-9 8.5-8.432 2.936-12.932.102-13.5-8.5C2.075 36.368.908 34.202 1.5 31c.728-7.112 4.061-12.778 10-17 4.47-2.623 7.97-1.79 10.5 2.5a27.36 27.36 0 0 1-.5 11c2.813-.475 4.813.525 6 3z"/><path style="opacity:1" fill="#f7b974" d="M33.5 11.5v10l-2-1v-7l2-2z"/><path style="opacity:1" fill="#fef2e7" d="M12.5 19.5c2.448-.415 3.781.585 4 3-.95 2.785-2.784 4.785-5.5 6-1.732-.234-2.566-1.234-2.5-3a18.178 18.178 0 0 1 4-6z"/><path style="opacity:1" fill="#fdebd8" d="m31.5 20.5 2 1c-.27 1.88.396 3.213 2 4 1.792.81 3.792 1.31 6 1.5-1.182 1.768-2.515 1.935-4 .5l-2 1c-1.475-1.91-3.475-3.076-6-3.5a9.173 9.173 0 0 0 2-4.5z"/><path style="opacity:1" fill="#fac995" d="m46.5 23.5 2 2h-3c.06 2.84.726 5.508 2 8-1.28 1.468-2.946 2.135-5 2-.11-2.148.556-2.481 2-1l1-2c-1.437-2.077-2.104-4.41-2-7l3-2z"/><path style="opacity:1" fill="#f5a148" d="M35.5 25.5h8c-.104 2.59.563 4.923 2 7l-1 2c-1.444-1.481-2.11-1.148-2 1v1c-1.25-.077-2.083-.744-2.5-2a4.932 4.932 0 0 0-.5 3c-1.902-2.837-2.569-6.17-2-10 1.485 1.435 2.818 1.268 4-.5-2.208-.19-4.208-.69-6-1.5z"/><path style="opacity:1" fill="#f39631" d="M52.5 30.5c-1.347-.528-2.68-.695-4-.5 1.485 1.756 1.152 2.923-1 3.5-1.274-2.492-1.94-5.16-2-8h3c.283.79.783 1.456 1.5 2a52.61 52.61 0 0 0 0-7c1-1.333 2-1.333 3 0 .747 3.424.58 6.757-.5 10z"/><path style="opacity:.7" fill="#1b9860" d="M54.5 20.5c5.211 10.749 1.878 17.582-10 20.5-3.782 3.883-8.448 5.55-14 5-3.482 5.41-8.482 8.244-15 8.5 2.385-1.763 5.052-3.263 8-4.5a21.52 21.52 0 0 0 5-6 28.335 28.335 0 0 0 11-3c1.641-1.129 2.641-2.629 3-4.5 2.728.33 5.062-.337 7-2a6.541 6.541 0 0 0 3-3c.617-.11 1.117-.444 1.5-1 .498-3.317.665-6.65.5-10z"/><path style="opacity:1" fill="#fee9d4" d="M30.5 28.5c1.837.14 2.17.806 1 2-.797-.457-1.13-1.124-1-2z"/><path style="opacity:1" fill="#f8c085" d="M37.5 27.5c-.569 3.83.098 7.163 2 10-.342.838-1.008 1.172-2 1-.901-.79-1.568-1.79-2-3 1.333-1.333 1.333-2.667 0-4v-3l2-1z"/><path style="opacity:1" fill="#f8c082" d="M28.5 29.5c.983 3.798 1.317 7.798 1 12l-2-4v-7c.667 0 1-.333 1-1z"/><path style="opacity:1" fill="#fbd8b4" d="M52.5 30.5v1a6.541 6.541 0 0 1-3 3c-.992.172-1.658-.162-2-1 2.152-.577 2.485-1.744 1-3.5 1.32-.195 2.653-.028 4 .5z"/><path style="opacity:1" fill="#fef6ef" d="M18.5 31.5c3.638-.763 5.138.57 4.5 4-2.408 3.12-5.574 4.453-9.5 4 .036-3.7 1.703-6.367 5-8z"/><path style="opacity:1" fill="#fef5ec" d="M35.5 31.5c1.333 1.333 1.333 2.667 0 4-1.186-1.205-1.186-2.539 0-4z"/><path style="opacity:1" fill="#cfe6d8" d="M47.5 33.5c.342.838 1.008 1.172 2 1-1.938 1.663-4.272 2.33-7 2v-1c2.054.135 3.72-.532 5-2z"/><path style="opacity:.419" fill="#07945b" d="M59.5 46.5v7c-2.12.43-4.12.43-6 0-1.238-3.81-1.904-3.81-2 0-2.273 1.235-4.106.902-5.5-1-3.267 2.488-5.267 1.488-6-3-.216 1.884-.883 3.55-2 5-1.458-1.247-2.958-1.247-4.5 0a3.646 3.646 0 0 1-1.5-1 24.939 24.939 0 0 1-.5-7c6.342-.166 12.675 0 19 .5a9.468 9.468 0 0 1 1.5 2.5c.582-3.168 1.582-3.501 3-1 1.049-1.607 2.549-2.273 4.5-2z"/><path style="opacity:.922" fill="#10955d" d="M9.5 48.5a32.437 32.437 0 0 1 8 .5c-.544.717-1.21 1.217-2 1.5-2.398.24-4.398-.426-6-2z"/></svg>