<svg xmlns="http://www.w3.org/2000/svg" width="114" height="114" style="shape-rendering:geometricPrecision;text-rendering:geometricPrecision;image-rendering:optimizeQuality;fill-rule:evenodd;clip-rule:evenodd"><path style="opacity:.7" fill="#fbf6ef" d="M103.5 38.5c3.033 10.648.7 19.815-7 27.5-4.315 2.55-8.981 3.882-14 4-6.742 9.702-16.076 14.035-28 13-2.187 5.19-5.52 9.524-10 13a148.895 148.895 0 0 1-15 6.5c-.992-.172-1.658.162-2 1-1.073-.751-1.24-1.751-.5-3a31.444 31.444 0 0 0 4.5-5c3.622-1.802 3.622-3.136 0-4a61.17 61.17 0 0 1-13 1c-9.276-2.865-13.276-9.198-12-19-3.169-.502-5.502-2.17-7-5v-17c5.188-14.03 14.521-24.53 28-31.5a74.58 74.58 0 0 1 12-2c5.817-9.525 13.15-10.859 22-4 13.038.11 24.538 4.277 34.5 12.5a37.477 37.477 0 0 1 7.5 12z"/><path style="opacity:1" fill="#f29228" d="M48.5 13.5c3.478-.316 6.812.184 10 1.5 1.711 1.133 2.211 2.633 1.5 4.5-4.517 3.742-9.684 4.909-15.5 3.5-2.297-1.263-3.13-3.097-2.5-5.5 2.013-1.748 4.18-3.082 6.5-4z"/><path style="opacity:1" fill="#f19023" d="M87.5 46.5c-4.734 3.424-10.068 4.758-16 4-3.908-.739-6.408-3.072-7.5-7-1.98-8.048-1.814-16.048.5-24 2.708-1.936 5.708-2.436 9-1.5a86.512 86.512 0 0 1 12 4.5c.886.825 1.219 1.825 1 3a30.348 30.348 0 0 0-10-.5c-2.675 5.152-2.508 10.319.5 15.5 4.128 4.345 7.295 3.678 9.5-2-4.357-1.047-5.857-3.713-4.5-8 4.145-3.479 8.478-3.812 13-1 .222 6.887-2.278 12.554-7.5 17z"/><path style="opacity:1" fill="#f18f20" d="M27.5 24.5c10.855-1.314 16.188 3.52 16 14.5.036 4.098-.964 7.931-3 11.5 11.362 1.376 15.862 7.71 13.5 19-4.655 13.422-14.155 20.089-28.5 20-7.391.897-12.224-2.103-14.5-9a50.441 50.441 0 0 1-.5-10c-3.67.173-6.17-1.493-7.5-5-.826-5.09-.492-10.09 1-15 4.572-11.733 12.406-20.4 23.5-26z"/><path style="opacity:1" fill="#f19023" d="M49.5 24.5c11.55-1.897 15.383 2.77 11.5 14a57.682 57.682 0 0 1-3 8c-3.696 2.925-7.03 2.592-10-1-3.098-5.653-4.098-11.653-3-18 1.409-1.281 2.909-2.281 4.5-3z"/><path style="opacity:1" fill="#f19126" d="M90.5 64.5a91.095 91.095 0 0 1-4-12.5c.019-1.833.685-3.333 2-4.5 3.114.591 5.614 2.258 7.5 5-.492-4.31-.825-8.643-1-13 3.781-3.063 5.781-2.063 6 3a42.479 42.479 0 0 1 0 13c-1.65 4.986-3.984 5.32-7 1a28.885 28.885 0 0 1 1 7c-1.356.88-2.856 1.213-4.5 1z"/><path style="opacity:1" fill="#fff7f0" d="M25.5 37.5c5.704-.354 7.537 2.313 5.5 8-2.63 5.327-6.797 8.16-12.5 8.5-2.521-3.482-2.355-6.982.5-10.5a53.855 53.855 0 0 1 6.5-6z"/><path style="opacity:.82" fill="#17965e" d="M103.5 38.5c7.256 11.288 6.589 22.121-2 32.5-5.155 3.364-10.822 5.364-17 6-2 3.333-4.667 6-8 8a102.449 102.449 0 0 1-18 2c-6.505 10.921-16.172 16.088-29 15.5a148.895 148.895 0 0 0 15-6.5c4.48-3.476 7.813-7.81 10-13 11.924 1.035 21.258-3.298 28-13 5.019-.118 9.685-1.45 14-4 7.7-7.685 10.033-16.852 7-27.5z"/><path style="opacity:1" fill="#fbd5ae" d="M87.5 46.5c0 .667.333 1 1 1-1.315 1.167-1.981 2.667-2 4.5a91.095 91.095 0 0 0 4 12.5l-2 2c-.097-3.456-1.097-6.623-3-9.5-4.583-.934-6.083.9-4.5 5.5.717.544 1.217 1.21 1.5 2l-2 5c-.186-5.027-1.52-9.694-4-14-.172-.992.162-1.658 1-2 .47 1.194 1.47 1.86 3 2 3.012.321 4.345-1.012 4-4-2.45-.202-4.783.131-7 1-1.333-1.333-2.667-1.333-4 0h-2v-2c5.932.758 11.266-.576 16-4z"/><path style="opacity:1" fill="#f2932a" d="M64.5 75.5c-.255-2.516-1.089-4.85-2.5-7 .11 3.629.276 7.296.5 11-2.292.256-4.46-.077-6.5-1l-1-23c-1.505-1.798-1.672-3.632-.5-5.5 5.208-1.294 9.707-.128 13.5 3.5 1.097 4.024.264 7.524-2.5 10.5a55.396 55.396 0 0 1 6 11c-1.186 2.43-3.186 3.597-6 3.5.237-1.291-.096-2.291-1-3z"/><path style="opacity:1" fill="#fef4eb" d="M73.5 52.5c1.333-1.333 2.667-1.333 4 0v1c-.838.342-1.172 1.008-1 2a10.174 10.174 0 0 0-3-3z"/><path style="opacity:1" fill="#f19025" d="M77.5 53.5v-1c2.217-.869 4.55-1.202 7-1 .345 2.988-.988 4.321-4 4-1.53-.14-2.53-.806-3-2z"/><path style="opacity:1" fill="#f2932c" d="M71.5 52.5h2a10.174 10.174 0 0 1 3 3c2.48 4.306 3.814 8.973 4 14-.06.543-.393.876-1 1l-3-4a13.117 13.117 0 0 0-1 7c-3.266.067-4.766-1.6-4.5-5-.817-5.516-.65-10.85.5-16z"/><path style="opacity:1" fill="#fef3e8" d="M58.5 55.5c3.45-.744 5.116.59 5 4-3.45.744-5.116-.59-5-4z"/><path style="opacity:1" fill="#f29228" d="M88.5 66.5c-2.697 1.545-4.697.879-6-2-.283-.79-.783-1.456-1.5-2-1.583-4.6-.083-6.434 4.5-5.5 1.903 2.877 2.903 6.044 3 9.5z"/><path style="opacity:1" fill="#fde6d1" d="M73.5 58.5c1.465.906 2.465 2.239 3 4-.825.886-1.825 1.219-3 1v-5z"/><path style="opacity:1" fill="#fef8f2" d="M35.5 60.5c7.924-1.254 10.424 1.746 7.5 9-4.124 4.816-9.29 6.983-15.5 6.5-2.488-2.627-2.655-5.46-.5-8.5 2.628-2.71 5.461-5.044 8.5-7z"/><path style="opacity:1" fill="#fbd3ab" d="m64.5 75.5-2 4a366.24 366.24 0 0 1-.5-11c1.411 2.15 2.245 4.484 2.5 7z"/><path style="opacity:.437" fill="#0b965b" d="M69.5 89.5h8a40.25 40.25 0 0 0-2 13c-1.929.269-3.595-.231-5-1.5-.126-2.234.207-4.568 1-7-1.607-1.049-2.273-2.549-2-4.5z"/><path style="opacity:.46" fill="#069459" d="M78.5 89.5c3 1.333 6 1.333 9 0a60.94 60.94 0 0 1-.5 11c-3.012 2.75-5.679 2.417-8-1a50.441 50.441 0 0 1-.5-10z"/><path style="opacity:.477" fill="#03945a" d="M89.5 89.5c7.684-1.007 10.518 2.326 8.5 10-2.196 2.625-5.03 3.625-8.5 3v-13z"/><path style="opacity:.419" fill="#11955e" d="M100.5 89.5h4a72.368 72.368 0 0 1-.5 12c-1.333 1.333-2.667 1.333-4 0-.763-4.087-.596-8.087.5-12z"/><path style="opacity:.487" fill="#03945a" d="M113.5 90.5v11c-5.757 2.25-8.424.25-8-6-.23-5.888 2.437-7.555 8-5z"/><path style="opacity:.532" fill="#1a975e" d="M31.5 95.5c-4.812.535-9.145-.465-13-3a61.17 61.17 0 0 0 13-1c3.622.864 3.622 2.198 0 4z"/><path style="opacity:.533" fill="#07945b" d="M61.5 89.5c2.292-.256 4.46.077 6.5 1 .658 1.608.158 2.775-1.5 3.5 2.57 2.718 2.57 5.385 0 8-1.735.651-3.402.485-5-.5-.502-3.917-.502-7.917 0-12z"/><path style="opacity:.004" fill="#87baaa" d="M27.5 103.5c1.333.667 1.333.667 0 0z"/></svg>