<svg xmlns="http://www.w3.org/2000/svg" width="57" height="57" style="shape-rendering:geometricPrecision;text-rendering:geometricPrecision;image-rendering:optimizeQuality;fill-rule:evenodd;clip-rule:evenodd"><path style="opacity:1" fill="#f29631" d="M29.5 9.5c-1.714 1.238-3.714 1.905-6 2-3.46-.76-3.793-2.26-1-4.5 2-.667 4-.667 6 0 .752.67 1.086 1.504 1 2.5z"/><path style="opacity:1" fill="#f2942e" d="M23.5 12.5c6.174-1.327 8.34 1.006 6.5 7-.273 1.829-1.107 3.329-2.5 4.5 2.176.163 4.01.996 5.5 2.5a52.61 52.61 0 0 1 0 7l2 2c.755-3.755.589-7.422-.5-11h7v3a201.92 201.92 0 0 1-5-1.5c1.4 3.883 3.734 4.383 7 1.5-1.307-1.365-1.307-2.698 0-4 1.517.01 2.684.677 3.5 2 .186-2.4.686-4.734 1.5-7l1 .5c.95 3.057 1.284 6.223 1 9.5a54.978 54.978 0 0 0-6 4.5c-1.284.684-2.45.517-3.5-.5a2.428 2.428 0 0 0-.5 2c-.996.086-1.83-.248-2.5-1-.847 3.569-2.847 4.902-6 4-1.049 1.607-2.549 2.273-4.5 2a84.938 84.938 0 0 0-.5-13 31.305 31.305 0 0 1-5-8 32.412 32.412 0 0 1-1.5 6c6.146 3.004 7.646 7.67 4.5 14-6.234 6.991-12.9 7.658-20 2-.845-3.986-2.345-7.653-4.5-11 1.495-6.987 5.162-12.487 11-16.5a16.25 16.25 0 0 1 8 0 9.468 9.468 0 0 1 1.5 2.5c.377-1.442 1.21-2.442 2.5-3z"/><path style="opacity:.477" fill="#fcebd9" d="M30.5 6.5c9.67-.34 16.67 3.66 21 12 .313 3.542-.02 6.875-1 10 .284-3.277-.05-6.443-1-9.5l-1-.5a26.706 26.706 0 0 0-1.5 7c-.816-1.323-1.983-1.99-3.5-2 2.435-2.874 3.769-6.207 4-10-3.14-.592-5.474.408-7 3a7.291 7.291 0 0 0 2 3c-.333 1-1 1.667-2 2-3.59-2.171-4.59-5.171-3-9 6.567-.122 6.567-1.289 0-3.5-1.667-.667-3.333-.667-5 0-1.132 4.413-1.3 8.913-.5 13.5.708.88 1.542 1.547 2.5 2 1.089 3.578 1.255 7.245.5 11l-2-2a52.61 52.61 0 0 0 0-7c-1.49-1.504-3.324-2.337-5.5-2.5 1.393-1.171 2.227-2.671 2.5-4.5 1.84-5.994-.326-8.327-6.5-7v-1c2.286-.095 4.286-.762 6-2 .904-.709 1.237-1.709 1-3z"/><path style="opacity:1" fill="#f19125" d="M43.5 23.5c-.992-.172-1.658.162-2 1h-7c-.958-.453-1.792-1.12-2.5-2-.8-4.587-.632-9.087.5-13.5 1.667-.667 3.333-.667 5 0 6.567 2.211 6.567 3.378 0 3.5-1.59 3.829-.59 6.829 3 9 1-.333 1.667-1 2-2a7.291 7.291 0 0 1-2-3c1.526-2.592 3.86-3.592 7-3-.231 3.793-1.565 7.126-4 10z"/><path style="opacity:.665" fill="#269b65" d="M51.5 18.5c5.634 11.07 2.3 18.07-10 21-.864 1.697-2.197 2.863-4 3.5a42.707 42.707 0 0 0-9 1.5c-3.304 4.985-7.97 7.319-14 7a95.562 95.562 0 0 0 9-5c1.915-1.571 2.915-3.571 3-6 6.228 1.211 10.894-.789 14-6 4.962.526 8.296-1.474 10-6 .98-3.125 1.313-6.458 1-10z"/><path style="opacity:1" fill="#facd9d" d="M43.5 23.5c-1.307 1.302-1.307 2.635 0 4-3.266 2.883-5.6 2.383-7-1.5 1.544.487 3.21.987 5 1.5v-3c.342-.838 1.008-1.172 2-1z"/><path style="opacity:1" fill="#fbdebe" d="M29.5 27.5c1.837.14 2.17.806 1 2-.797-.457-1.13-1.124-1-2z"/><path style="opacity:1" fill="#ecefe5" d="M50.5 28.5c-1.704 4.526-5.038 6.526-10 6a2.428 2.428 0 0 1 .5-2c1.05 1.017 2.216 1.184 3.5.5 1.9-1.639 3.9-3.139 6-4.5z"/><path style="opacity:.959" fill="#faf4eb" d="M30.5 6.5c.237 1.291-.096 2.291-1 3 .086-.996-.248-1.83-1-2.5-2-.667-4-.667-6 0-2.793 2.24-2.46 3.74 1 4.5v1c-1.29.558-2.123 1.558-2.5 3a9.468 9.468 0 0 0-1.5-2.5 16.25 16.25 0 0 0-8 0c-5.838 4.013-9.505 9.513-11 16.5 2.155 3.347 3.655 7.014 4.5 11 7.1 5.658 13.766 4.991 20-2 3.146-6.33 1.646-10.996-4.5-14a32.412 32.412 0 0 0 1.5-6 31.305 31.305 0 0 0 5 8c.499 4.32.666 8.654.5 13 1.951.273 3.451-.393 4.5-2 3.153.902 5.153-.431 6-4 .67.752 1.504 1.086 2.5 1-3.106 5.211-7.772 7.211-14 6-.085 2.429-1.085 4.429-3 6a95.562 95.562 0 0 1-9 5c-2.296-.304-2.629-1.304-1-3a12.649 12.649 0 0 0 4-2.5c-3.197-.804-6.197-.638-9 .5-4.279-1.867-6.612-5.2-7-10a44.354 44.354 0 0 0-2-1v-12C3.393 14.776 10.06 9.61 19.5 8l2-3a16.25 16.25 0 0 1 8 0c.556.383.89.883 1 1.5z"/><path style="opacity:1" fill="#fef7f0" d="M16.5 30.5h5c-.312 5.636-3.312 7.969-9 7-.313-3.337 1.02-5.67 4-7z"/><path style="opacity:1" fill="#fef5ec" d="M11.5 18.5h4c.482 5.182-1.851 7.849-7 8-.106-3.114.894-5.781 3-8z"/><path style="opacity:.441" fill="#04945b" d="M29.5 44.5h14a18.436 18.436 0 0 1-.5 6c-3.552 1.472-5.218.138-5-4-.672 5.73-1.672 6.063-3 1-.117 3.129-1.617 4.295-4.5 3.5-.923-2.04-1.256-4.208-1-6.5z"/><path style="opacity:.41" fill="#03945b" d="M56.5 44.5v7c-1.977-.65-3.81-.65-5.5 0-.945-.405-1.612-1.072-2-2-1.11 1.537-2.61 2.203-4.5 2v-7c3.847.52 7.847.52 12 0z"/><path style="opacity:.609" fill="#308e5d" d="M8.5 46.5c2.803-1.138 5.803-1.304 9-.5a12.649 12.649 0 0 1-4 2.5 26.326 26.326 0 0 0-5-2z"/></svg>