<svg xmlns="http://www.w3.org/2000/svg" width="180" height="180" style="shape-rendering:geometricPrecision;text-rendering:geometricPrecision;image-rendering:optimizeQuality;fill-rule:evenodd;clip-rule:evenodd"><path style="opacity:.864" fill="#fbf8f3" d="M112.5 23.5c1.068.934 2.401 1.268 4 1 15.629 3.4 28.796 11.066 39.5 23 2.541 4.428 5.041 8.762 7.5 13v5c.741 5.97 1.075 11.97 1 18-4.312 18.113-15.979 27.28-35 27.5-10.1 15.763-24.434 21.929-43 18.5-3.082 10.654-9.416 18.82-19 24.5-7.37 3.39-14.703 6.223-22 8.5-.992-.172-1.658.162-2 1l-2-3c3.352-2.354 6.018-5.354 8-9 3.447-1.554 5.447-4.221 6-8-8.9 1.715-17.9 2.381-27 2a54.805 54.805 0 0 1-9-4 25.615 25.615 0 0 0-6-6l-2-6c-1.174-4.319-1.174-8.653 0-13-3.563-.183-6.563-1.517-9-4a6.544 6.544 0 0 0-3-3v-29a212.887 212.887 0 0 1 12-20.5l-1-1A256.807 256.807 0 0 0 29 39.5l1 1c8.45-6.928 18.117-10.928 29-12l4 2c2.677-8.715 8.177-13.548 16.5-14.5-1.196-.654-1.196-1.154 0-1.5 1.61 1.052 3.277 1.052 5 0 1.286.351 2.12 1.018 2.5 2 1.646-1.64 2.646-1.307 3 1l1-1c1.167 2.5 3 4.333 5.5 5.5a647.64 647.64 0 0 0 16 1.5z"/><path style="opacity:1" fill="#f29126" d="M77.5 21.5c5.572-.51 10.905.323 16 2.5 2.488 2.627 2.655 5.46.5 8.5-6.874 4.533-14.374 6.033-22.5 4.5-4.538-1.713-6.038-4.88-4.5-9.5 3.069-2.945 6.569-4.945 10.5-6z"/><path style="opacity:.004" fill="#7eb5a4" d="M112.5 22.5c1.333.667 1.333.667 0 0z"/><path style="opacity:.004" fill="#81b7a6" d="M116.5 23.5c1.333.667 1.333.667 0 0z"/><path style="opacity:1" fill="#f18f21" d="M139.5 73.5a88.948 88.948 0 0 1-11 6c-6 1.333-12 1.333-18 0-6.351-2.017-9.684-6.35-10-13a401.333 401.333 0 0 1 1-33c1.385-4.38 4.385-6.38 9-6 9.008 1.781 17.674 4.781 26 9 1.231 1.15 1.231 2.317 0 3.5-4.951-.63-9.951-.963-15-1-6.397 11.225-4.731 21.225 5 30 6.308.197 9.642-2.97 10-9.5-6.563-.089-9.063-3.422-7.5-10 5.208-4.844 11.375-6.677 18.5-5.5l2.5 2.5c.791 4.425.457 8.759-1 13a66.694 66.694 0 0 1-9.5 14z"/><path style="opacity:1" fill="#f18e1f" d="M68.5 54.5c.823 9.044-.51 17.71-4 26-.543.06-.876.393-1 1a21.12 21.12 0 0 0 9 1c11.059 4.104 15.392 12.104 13 24-3.724 18.891-15.057 30.391-34 34.5-24.12 5.533-35.953-3.967-35.5-28.5-9.589-3.16-13.589-9.827-12-20C8.43 68.406 21.597 50.906 43.5 40c13.436-3.949 21.77.884 25 14.5z"/><path style="opacity:1" fill="#f19022" d="M97.5 45.5c.532 7.837-.301 15.503-2.5 23-3.224 7.846-8.724 10.013-16.5 6.5-5.856-8.918-8.522-18.751-8-29.5 3.74-5.18 8.907-7.514 15.5-7 5.444-.04 9.277 2.294 11.5 7z"/><path style="opacity:1" fill="#f5a246" d="M101.5 33.5a401.333 401.333 0 0 0-1 33c-.992-7.482-1.325-15.148-1-23 .049-3.578.715-6.911 2-10z"/><path style="opacity:1" fill="#f19023" d="M142.5 101.5a345.766 345.766 0 0 1-6-20c.637-4.631 3.304-6.631 8-6 2.972 2.141 5.472 4.808 7.5 8a159.128 159.128 0 0 1-2-20c1.172-3.203 3.339-4.703 6.5-4.5a19.151 19.151 0 0 1 3.5 8.5 100.2 100.2 0 0 1 0 20c-.941 2.928-2.608 5.261-5 7a29.778 29.778 0 0 1-7-6 41.413 41.413 0 0 1 2 12c-2.33 2.047-4.83 2.38-7.5 1z"/><path style="opacity:1" fill="#fefaf5" d="M41.5 59.5c3.47-.625 6.304.375 8.5 3 .817 9.527-3.016 16.694-11.5 21.5-3.238 1.368-6.572 1.701-10 1-2.643-5.352-2.143-10.518 1.5-15.5a51.467 51.467 0 0 1 11.5-10z"/><path style="opacity:1" fill="#fef2e7" d="M99.5 43.5c-.325 7.852.008 15.518 1 23 .316 6.65 3.649 10.983 10 13 1.306.967 1.973 2.3 2 4a99.585 99.585 0 0 0-.5 24 19.95 19.95 0 0 0 2.5 8c.825.886 1.825 1.219 3 1-.709.904-1.709 1.237-3 1 .343 1.983-.324 3.317-2 4 1.33-2.381 1.164-4.714-.5-7a87.76 87.76 0 0 0-9.5-12.5 25.195 25.195 0 0 0 6.5-8.5c1.209-6.358-1.291-10.524-7.5-12.5-5.103-2.343-10.436-3.01-16-2a6.288 6.288 0 0 0-1 3c2.264 3.797 3.431 7.964 3.5 12.5.5 9.661.666 19.328.5 29-.354-5.906-1.354-11.573-3-17 2.392-11.896-1.941-19.896-13-24l-8-2c3.49-8.29 4.823-16.956 4-26l2-9c-.522 10.749 2.144 20.582 8 29.5 7.776 3.513 13.276 1.346 16.5-6.5 2.199-7.497 3.032-15.163 2.5-23l2-2z"/><path style="opacity:.004" fill="#54ae84" d="M168.5 68.5c1.333.667 1.333 1.333 0 2v-2z"/><path style="opacity:.004" fill="#1da162" d="M169.5 71.5c1.333.667 1.333.667 0 0z"/><path style="opacity:.004" fill="#1fa262" d="M170.5 76.5a4.934 4.934 0 0 1 .5-3c.74 1.25.573 2.25-.5 3z"/><path style="opacity:1" fill="#8fcaae" d="M163.5 65.5c1.47 3.386 2.137 7.053 2 11-.003 2.525-.337 4.859-1 7 .075-6.03-.259-12.03-1-18z"/><path style="opacity:.847" fill="#1c9760" d="M163.5 60.5c2.664 1.984 4.331 4.651 5 8-1.333.667-1.333 1.333 0 2 .095 2.286.762 4.286 2 6 1.437 7.826.771 15.493-2 23 .124.607.457.94 1 1-1.999 6.138-5.666 10.305-11 12.5l1 1c-4.837 1.175-8.671 3.008-11.5 5.5a3.943 3.943 0 0 1-2-1c-1.054 2.254-2.554 2.587-4.5 1-7.215 2.364-12.882 6.864-17 13.5-9.456 5.66-19.456 7.16-30 4.5a243.924 243.924 0 0 1-15 16c-.333-1.333-.667-1.333-1 0-2.654 1.992-5.32 3.992-8 6-2.309-1.433-3.809-.766-4.5 2l-1-2a36.287 36.287 0 0 0-4.5 2c-1.302 1.307-2.635 1.307-4 0-1.196.346-1.196.846 0 1.5l-2.5.5c-2.954-.773-5.787-1.107-8.5-1 7.297-2.277 14.63-5.11 22-8.5 9.584-5.68 15.918-13.846 19-24.5 18.566 3.429 32.9-2.737 43-18.5 19.021-.22 30.688-9.387 35-27.5.663-2.141.997-4.475 1-7 .137-3.947-.53-7.614-2-11v-5z"/><path style="opacity:.004" fill="#149f5d" d="M171.5 77.5c1.025.397 1.192 1.063.5 2a2.429 2.429 0 0 1-.5-2z"/><path style="opacity:1" fill="#f19022" d="M112.5 121.5c-.992-.172-1.658.162-2 1a19.22 19.22 0 0 1-6 1c-.845-1.171-1.511-2.505-2-4a54.325 54.325 0 0 0-4-11l-1 2.5a39.123 39.123 0 0 1 2 14.5c-3.987.49-7.654-.176-11-2 .166-9.672 0-19.339-.5-29-.069-4.536-1.236-8.703-3.5-12.5a6.288 6.288 0 0 1 1-3c5.564-1.01 10.897-.343 16 2 6.209 1.976 8.709 6.142 7.5 12.5a25.195 25.195 0 0 1-6.5 8.5 87.76 87.76 0 0 1 9.5 12.5c1.664 2.286 1.83 4.619.5 7z"/><path style="opacity:1" fill="#facfa6" d="M110.5 79.5c6 1.333 12 1.333 18 0l4 2c-3.07-.132-6.07.201-9 1-2.667-1.333-5.333-1.333-8 0a5.728 5.728 0 0 0-3 1c-.027-1.7-.694-3.033-2-4z"/><path style="opacity:1" fill="#f6b572" d="m64.5 80.5 8 2a21.12 21.12 0 0 1-9-1c.124-.607.457-.94 1-1z"/><path style="opacity:1" fill="#fde7d4" d="m139.5 73.5 5 2c-4.696-.631-7.363 1.369-8 6a345.766 345.766 0 0 0 6 20l-2 3c-.18-5.373-1.846-10.206-5-14.5-9.416-.225-11.416 3.608-6 11.5-.838.342-1.172 1.008-1 2a543.097 543.097 0 0 0-7.5-15c-1.331-2.496-3.164-4.496-5.5-6 2.667-1.333 5.333-1.333 8 0-3.21 4.026-2.21 6.026 3 6 5.9.46 7.9-1.873 6-7l-4-2a88.948 88.948 0 0 0 11-6z"/><path style="opacity:1" fill="#f29128" d="M132.5 81.5c1.9 5.127-.1 7.46-6 7-5.21.026-6.21-1.974-3-6a29.221 29.221 0 0 1 9-1z"/><path style="opacity:1" fill="#fef1e6" d="M92.5 87.5c5.493-1.322 7.993.678 7.5 6-5.102 1.556-7.602-.444-7.5-6z"/><path style="opacity:1" fill="#f19126" d="M140.5 104.5c-2.101 1.609-4.435 2.109-7 1.5a32.6 32.6 0 0 0-4-4.5c-5.416-7.892-3.416-11.725 6-11.5 3.154 4.294 4.82 9.127 5 14.5z"/><path style="opacity:.004" fill="#54ac81" d="M171.5 90.5c1.073.75 1.24 1.75.5 3a4.934 4.934 0 0 1-.5-3z"/><path style="opacity:1" fill="#fefaf6" d="M57.5 95.5c10.615-1.233 14.449 3.1 11.5 13-6.101 9.038-14.601 12.871-25.5 11.5-3.386-3.373-3.886-7.206-1.5-11.5 4.43-5.267 9.596-9.6 15.5-13z"/><path style="opacity:.004" fill="#28a46a" d="M170.5 96.5c1.333.667 1.333.667 0 0z"/><path style="opacity:1" fill="#f2942d" d="M115.5 82.5c2.336 1.504 4.169 3.504 5.5 6a543.097 543.097 0 0 1 7.5 15c.672 3.408-.328 6.075-3 8-2.349-1.704-3.349-4.037-3-7h-3a60.931 60.931 0 0 1-.5 11c-.383.556-.883.889-1.5 1-1.175.219-2.175-.114-3-1a19.95 19.95 0 0 1-2.5-8 99.585 99.585 0 0 1 .5-24 5.728 5.728 0 0 1 3-1z"/><path style="opacity:1" fill="#feefe2" d="M116.5 92.5c3.171 2.019 4.504 5.019 4 9-1.322.17-2.489-.163-3.5-1a32.462 32.462 0 0 1-.5-8z"/><path style="opacity:.004" fill="#24a367" d="M169.5 99.5c1.333.667 1.333.667 0 0z"/><path style="opacity:.004" fill="#7ab2a1" d="M2.5 112.5c-.667.667-.667.667 0 0z"/><path style="opacity:.004" fill="#87baaa" d="M9.5 117.5c1.073.751 1.24 1.751.5 3a4.932 4.932 0 0 1-.5-3z"/><path style="opacity:1" fill="#fcdcbe" d="M102.5 119.5c-.617-.111-1.117-.444-1.5-1-.186 2.536-.686 4.869-1.5 7a39.123 39.123 0 0 0-2-14.5l1-2.5a54.325 54.325 0 0 1 4 11z"/><path style="opacity:1" fill="#fbd1a8" d="M110.5 122.5c-.634 1.447-1.801 2.113-3.5 2-1.07-.028-1.903-.361-2.5-1a19.22 19.22 0 0 0 6-1z"/><path style="opacity:.004" fill="#87baaa" d="M10.5 129.5c-1.073-.751-1.24-1.751-.5-3 .483.948.65 1.948.5 3z"/><path style="opacity:.004" fill="#83b7a7" d="M10.5 129.5h1l2 6c-2.039-1.411-3.039-3.411-3-6z"/><path style="opacity:.004" fill="#5aba86" d="M149.5 140.5c1.333.667 1.333.667 0 0z"/><path style="opacity:.004" fill="#85b9a8" d="M19.5 141.5c-.667.667-.667.667 0 0z"/><path style="opacity:.601" fill="#12955d" d="M179.5 143.5v17c-5.591 3.64-9.758 2.307-12.5-4l-1 3-.5-2a46.147 46.147 0 0 0 .5-14l1 3c3.052-5.369 7.219-6.369 12.5-3zm-6 4c2.424 2.42 2.591 5.087.5 8-1.812-2.546-1.978-5.212-.5-8z"/><path style="opacity:.609" fill="#11965c" d="M99.5 141.5c3.58-.577 6.58.423 9 3a11.38 11.38 0 0 0 2-2.5c4.575-1.012 8.908-.512 13 1.5 2.871-2.613 5.705-2.613 8.5 0 1.418-1.863 3.251-2.363 5.5-1.5l2 15-3.5 4.5c-.914-1.154-1.747-.987-2.5.5-2 .667-4 .667-6 0l1-1c-1.167-.5-2-1.333-2.5-2.5a179.716 179.716 0 0 0-3-13c-2.086 4.702-3.086 9.702-3 15-2.667 2.667-5.333 2.667-8 0-.796-4.255-.629-8.421.5-12.5-1.829-.273-3.329-1.107-4.5-2.5-.318 1.561-1.151 2.728-2.5 3.5 1.803.637 3.136 1.803 4 3.5-1.267 1.871-1.267 3.704 0 5.5a31.84 31.84 0 0 0-5 4.5c-1.542-1.247-3.042-1.247-4.5 0-2.304-1.633-3.804-3.8-4.5-6.5 2.282-2.702 2.282-5.536 0-8.5.861-2.411 2.194-4.411 4-6z"/><path style="opacity:.622" fill="#0a955b" d="M149.5 141.5a25.9 25.9 0 0 1 7 5v1c-1.333 2.667-1.333 5.333 0 8v1a575.2 575.2 0 0 0-6 5c-2.668 1.238-5.334 1.238-8 0-.997-6.634-1.33-13.3-1-20h8z"/><path style="opacity:.451" fill="#04945b" d="M158.5 141.5h6c.33 6.7-.003 13.366-1 20-1.333 1.333-2.667 1.333-4 0-.997-6.634-1.33-13.3-1-20z"/><path style="opacity:.004" fill="#89baab" d="M156.5 146.5a2.428 2.428 0 0 1 .5-2c.692.937.525 1.603-.5 2z"/><path style="opacity:.004" fill="#84b9a8" d="M139.5 143.5c1.145 3.811 1.312 7.811.5 12a72.367 72.367 0 0 1-.5-12z"/><path style="opacity:.56" fill="#229860" d="M49.5 151.5c-3.1.773-6.1 1.107-9 1-4.075-1.639-8.075-3.973-12-7 9.1.381 18.1-.285 27-2-.553 3.779-2.553 6.446-6 8z"/><path style="opacity:.004" fill="#96beb4" d="M156.5 147.5c1.333 2.667 1.333 5.333 0 8v-8z"/><path style="opacity:.004" fill="#52af86" d="M78.5 153.5h1c-.185.67-.519.67-1 0z"/><path style="opacity:.004" fill="#8dbbae" d="M109.5 154.5c1.333.667 1.333.667 0 0z"/><path style="opacity:.004" fill="#89baab" d="M156.5 156.5c1.073.751 1.24 1.751.5 3a4.934 4.934 0 0 1-.5-3z"/><path style="opacity:.004" fill="#3ea979" d="M123.5 156.5c1.025.397 1.192 1.063.5 2a2.428 2.428 0 0 1-.5-2z"/><path style="opacity:.004" fill="#87baaa" d="M41.5 160.5c-.667.667-.667.667 0 0z"/><path style="opacity:.004" fill="#4daa78" d="M60.5 161.5a2.429 2.429 0 0 1 2 .5c-.937.692-1.603.525-2-.5z"/><path style="opacity:.004" fill="#87baaa" d="M43.5 163.5a4.934 4.934 0 0 1 3 .5c-1.25.74-2.25.573-3-.5z"/></svg>