<svg xmlns="http://www.w3.org/2000/svg" width="76" height="76" style="shape-rendering:geometricPrecision;text-rendering:geometricPrecision;image-rendering:optimizeQuality;fill-rule:evenodd;clip-rule:evenodd"><path style="opacity:.634" fill="#fbf5ec" d="M69.5 26.5c1.716 11.928-3.284 18.594-15 20-4.487 6.737-10.82 9.403-19 8-.52 4.036-2.52 7.203-6 9.5-3.56 1.232-6.894 2.732-10 4.5-.876.13-1.543-.203-2-1a493.061 493.061 0 0 0 3-4 10.521 10.521 0 0 0 3-2.5c-3.629.11-7.296.276-11 .5-6.134-1.606-8.8-5.44-8-11.5a27.258 27.258 0 0 1-5-3.5v-14c4.897-10.564 12.897-17.565 24-21a4.938 4.938 0 0 1 2.5 1c.965-4.302 3.632-6.302 8-6 2.981-.419 5.314.581 7 3 13.22-.638 22.72 5.029 28.5 17z"/><path style="opacity:1" fill="#f39632" d="M37.5 14.5c-1.935.65-3.935.983-6 1-5.299-1.956-5.299-4.123 0-6.5 3.61-1.072 6.61-.239 9 2.5-.688 1.355-1.688 2.355-3 3z"/><path style="opacity:1" fill="#f29228" d="M63.5 23.5c-1.924 3.594-4.59 6.594-8 9a24.93 24.93 0 0 1-8 1c-2.591-.754-4.424-2.421-5.5-5-4.18-16.47.986-20.804 15.5-13-6.834-.984-9.334 2.016-7.5 9 2.066 4.757 4.566 5.09 7.5 1-4.748-1.704-5.082-3.871-1-6.5 4.7-1.713 7.032-.213 7 4.5z"/><path style="opacity:1" fill="#fad3a9" d="m37.5 14.5 1 2h-7v-1a19.242 19.242 0 0 0 6-1z"/><path style="opacity:1" fill="#f19023" d="M28.5 21.5v7a16.066 16.066 0 0 1-2 5c2.362.772 4.695 1.605 7 2.5 1.323.816 1.99 1.983 2 3.5v6c-2.295 9.583-8.462 14.25-18.5 14-7.995-.509-11.495-4.842-10.5-13-4.292-.309-5.96-2.642-5-7 1.605-9.695 6.605-17.195 15-22.5 3-.667 6-.667 9 0a11.112 11.112 0 0 1 3 4.5z"/><path style="opacity:1" fill="#f18f22" d="M31.5 16.5h7c.617.11 1.117.444 1.5 1 .79 4.425.457 8.759-1 13-.383.556-.883.89-1.5 1h-4c-1.75-1.16-2.75-2.826-3-5a20.677 20.677 0 0 0-1-5c-.108-2.014.558-3.68 2-5z"/><path style="opacity:1" fill="#f9ce9f" d="M28.5 21.5h1a20.677 20.677 0 0 1 1 5l-2 2v-7z"/><path style="opacity:1" fill="#fef8f1" d="M15.5 25.5c1.7-.16 3.366.006 5 .5.948 3.791-.386 6.791-4 9-1.634.493-3.3.66-5 .5a18.436 18.436 0 0 1 .5-6 19.568 19.568 0 0 0 3.5-4z"/><path style="opacity:1" fill="#fef1e6" d="M30.5 26.5c.25 2.174 1.25 3.84 3 5l2 2c.65 1.935.983 3.935 1 6h-1c-.01-1.517-.677-2.684-2-3.5a135.541 135.541 0 0 0-7-2.5 16.066 16.066 0 0 0 2-5l2-2z"/><path style="opacity:1" fill="#fcddbe" d="M63.5 23.5c0 .667.333 1 1 1a11.81 11.81 0 0 0-2 3.5c1.154 2.437 1.654 4.937 1.5 7.5a20.473 20.473 0 0 1-2.5-3.5c-1.284-.684-2.45-.517-3.5.5a31.302 31.302 0 0 0 1.5 10h3c-1.172.845-2.505 1.511-4 2 .106-2.579-.56-4.912-2-7 .237-1.291-.096-2.291-1-3v-2c3.41-2.406 6.076-5.406 8-9z"/><path style="opacity:.707" fill="#1d9861" d="M69.5 26.5c6.109 13.614 1.775 21.78-13 24.5-3.878 6.182-9.378 8.349-16.5 6.5-4.586 7.711-11.419 11.378-20.5 11 3.106-1.768 6.44-3.268 10-4.5 3.48-2.297 5.48-5.464 6-9.5 8.18 1.403 14.513-1.263 19-8 11.716-1.406 16.716-8.072 15-20z"/><path style="opacity:1" fill="#f8c287" d="M33.5 31.5h4l3 2h-5l-2-2z"/><path style="opacity:1" fill="#f29329" d="M64.5 24.5c.958.453 1.792 1.12 2.5 2 .947 4.54.447 8.874-1.5 13-4.244-2.879-4.91-2.212-2 2-.124.607-.457.94-1 1h-3a31.302 31.302 0 0 1-1.5-10c1.05-1.017 2.216-1.184 3.5-.5a20.473 20.473 0 0 0 2.5 3.5c.154-2.563-.346-5.063-1.5-7.5a11.81 11.81 0 0 1 2-3.5z"/><path style="opacity:1" fill="#facc9c" d="M55.5 32.5v2c.904.709 1.237 1.709 1 3-3.637 1.275-3.97 3.275-1 6-.904.709-1.237 1.709-1 3h-1c.08-5.121-1.92-9.121-6-12v-1a24.93 24.93 0 0 0 8-1z"/><path style="opacity:1" fill="#f19125" d="M35.5 33.5h5c5.426 1.572 6.426 4.739 3 9.5a34.639 34.639 0 0 0 4 5.5c-.193 3.07-1.527 4.07-4 3a13.488 13.488 0 0 0-2.5-6c.207 2.251.373 4.585.5 7h-4c.318-4.532-.015-8.866-1-13a19.242 19.242 0 0 0-1-6z"/><path style="opacity:1" fill="#f18f21" d="M55.5 34.5c-.12 1.086-.787 1.753-2 2l-2-1c1.189-.929 2.522-1.262 4-1z"/><path style="opacity:1" fill="#fde1c6" d="M38.5 36.5c1.846-.278 3.18.389 4 2-2.333 1.441-3.666.775-4-2z"/><path style="opacity:1" fill="#f19124" d="M56.5 37.5c1.44 2.088 2.106 4.421 2 7-1.291.237-2.291-.096-3-1-2.97-2.725-2.637-4.725 1-6z"/><path style="opacity:1" fill="#fef7f0" d="M22.5 40.5c8.958 1.309 9.291 4.476 1 9.5-6.1 1.903-7.934.07-5.5-5.5a32.614 32.614 0 0 0 4.5-4z"/><path style="opacity:1" fill="#f29632" d="M47.5 34.5c4.08 2.879 6.08 6.879 6 12-1.333 0-2-.667-2-2a21.572 21.572 0 0 0-2.5-6c.045 3.3.212 6.634.5 10h-2c-1.209-4.712-1.209-9.38 0-14z"/><path style="opacity:1" fill="#f9c791" d="M35.5 39.5h1c.985 4.134 1.318 8.468 1 13l-2-7v-6z"/><path style="opacity:1" fill="#f8b670" d="m51.5 44.5-2 4a140.03 140.03 0 0 1-.5-10 21.572 21.572 0 0 1 2.5 6z"/><path style="opacity:1" fill="#f9cd9e" d="m43.5 51.5-2 1a178.821 178.821 0 0 0-.5-7 13.488 13.488 0 0 1 2.5 6z"/><path style="opacity:.404" fill="#04945b" d="M40.5 59.5h11a41.744 41.744 0 0 0-1 9h-3c-.27-7.696-1.27-7.863-3-.5-1.399.595-2.732.428-4-.5-.458-2.561-.458-5.228 0-8z"/><path style="opacity:.405" fill="#03945b" d="M52.5 59.5h6a24.939 24.939 0 0 1-.5 7c-1.396 2.027-3.062 2.36-5 1a32.437 32.437 0 0 1-.5-8z"/><path style="opacity:.505" fill="#03945b" d="M59.5 59.5c1.7-.16 3.366.007 5 .5 2.43 5.384.763 8.217-5 8.5v-9z"/><path style="opacity:.539" fill="#03945b" d="M75.5 59.5v8c-2.62 1.626-4.454.96-5.5-2a4.932 4.932 0 0 0-.5 3h-3v-9c1.624-.14 2.79.527 3.5 2 1.4-1.692 3.234-2.359 5.5-2z"/><path style="opacity:.473" fill="#229963" d="M20.5 63.5c-3.053.39-5.72-.277-8-2a366.24 366.24 0 0 1 11-.5 10.521 10.521 0 0 1-3 2.5z"/></svg>