<svg xmlns="http://www.w3.org/2000/svg" width="200" height="200" style="shape-rendering:geometricPrecision;text-rendering:geometricPrecision;image-rendering:optimizeQuality;fill-rule:evenodd;clip-rule:evenodd"><path style="opacity:.959" fill="#fcf7f2" d="M147.5 34.5c.342.838 1.008 1.172 2 1 .342.838 1.008 1.172 2 1a96.562 96.562 0 0 1 11 7c0 .667.333 1 1 1a77.393 77.393 0 0 1 16 20c-.172.992.162 1.658 1 2v2c9.193 32.477-2.807 50.977-36 55.5-11.314 17.15-27.314 24.316-48 21.5-8.055 19.706-22.722 30.706-44 33-1.535.854-2.868.854-4 0a34.47 34.47 0 0 0 6-8c.667 0 1-.333 1-1 1.406-.473 2.073-1.473 2-3 2.23-1.576 3.897-3.743 5-6.5l-2-.5c-9.66 3.492-19.327 3.825-29 1a54.321 54.321 0 0 1-9-4c0-.667-.333-1-1-1a44.455 44.455 0 0 1-6-7c.172-.992-.162-1.658-1-2 .172-.992-.162-1.658-1-2a185.59 185.59 0 0 1-1-11c1.333-1.333 1.333-2.667 0-4-.342-.838-1.008-1.172-2-1h-1c-.342-.838-1.008-1.172-2-1-.79-.901-1.79-1.568-3-2 0-.667-.333-1-1-1 0-.667-.333-1-1-1-.132-2.507-1.132-3.174-3-2v-3c1.333-.333 1.333-.667 0-1v-21c1.333-.333 1.333-.667 0-1v-1c4.162-11.99 10.162-22.99 18-33 .667 0 1-.333 1-1a89.655 89.655 0 0 1 14-13.5l-2-1c1.816-1.941 3.816-2.608 6-2 1.894-1.101 2.56-2.434 2-4 2.816.63 5.482-.036 8-2 .43-.92.764-1.753 1-2.5.794.431 1.627.764 2.5 1a57.326 57.326 0 0 1 16.5-3c1.333 1.333 2.667 1.333 4 0 5.465-13.062 15.132-17.562 29-13.5a27.83 27.83 0 0 1 8 6c13.884.305 27.217 3.138 40 8.5z"/><path style="opacity:1" fill="#f18d1e" d="M84.5 24.5c6.093-.36 12.093.14 18 1.5 5.008 3.085 5.342 6.752 1 11-7.925 4.492-16.259 5.492-25 3-5.77-2.748-6.437-6.414-2-11a48.492 48.492 0 0 1 8-4.5z"/><path style="opacity:.004" fill="#87baaa" d="M70.5 33.5h-4v-1c1.624.14 2.79-.527 3.5-2 .483.948.65 1.948.5 3zM66.5 32.5c-1.7.16-3.366-.007-5-.5 1.887-.78 3.554-.613 5 .5z"/><path style="opacity:1" fill="#f18d1c" d="M141.5 88.5a45.795 45.795 0 0 1-12 1c-9.493-.305-15.326-4.972-17.5-14-2.485-13.842-1.819-27.51 2-41l2.5-2.5a42.498 42.498 0 0 1 13 0 108.537 108.537 0 0 1 22 8c1.511 2.782.678 4.615-2.5 5.5-11.41-6.59-17.576-3.424-18.5 9.5.284 8.192 3.284 15.192 9 21 7.648.87 11.982-2.63 13-10.5-2.827 1.474-5.327 1.14-7.5-1-4.5-7.145-2.667-11.978 5.5-14.5 14.316-4.681 19.483.152 15.5 14.5-4.438 11.935-12.605 19.935-24.5 24z"/><path style="opacity:.004" fill="#87baaa" d="M147.5 34.5c2.166-1.129 4.166-.629 6 1.5a2.427 2.427 0 0 1-2 .5c-.342-.838-1.008-1.172-2-1-.342-.838-1.008-1.172-2-1zM42.5 37.5c1.333.667 1.333.667 0 0zM162.5 43.5c.997-1.212 1.997-1.046 3 .5a2.427 2.427 0 0 1-2 .5c-.667 0-1-.333-1-1z"/><path style="opacity:1" fill="#f18d1b" d="M71.5 89.5c-.543.06-.876.393-1 1a21.12 21.12 0 0 0 9 1c9.072 1.572 14.239 6.905 15.5 16 .997 25.491-10.836 41.657-35.5 48.5a91.35 91.35 0 0 1-24 1c-9.281-2.281-14.781-8.114-16.5-17.5a114.67 114.67 0 0 0-1.5-15c-6.548-1.052-10.715-4.719-12.5-11C5.234 87.531 15.735 66.698 36.5 51c8.025-6.184 17.025-8.518 27-7 5.745 2.263 9.578 6.43 11.5 12.5 2.801 11.47 1.635 22.47-3.5 33z"/><path style="opacity:1" fill="#f18d1b" d="M88.5 43.5a55.81 55.81 0 0 1 16 1.5l2.5 2.5a96.616 96.616 0 0 1-1 26c-3.852 12.785-10.853 15.118-21 7-5.34-9.69-7.34-20.024-6-31 2.855-2.727 6.022-4.727 9.5-6z"/><path style="opacity:.004" fill="#87baaa" d="M18.5 60.5c-.667 0-1 .333-1 1-1.212-.997-1.046-1.997.5-3 .464.594.631 1.261.5 2zM180.5 66.5c.172-.992-.162-1.658-1-2-.107-1.879.393-2.212 1.5-1 .74 1.25.573 2.25-.5 3z"/><path style="opacity:1" fill="#fefbf8" d="M45.5 66.5c10.298-.434 13.465 4.233 9.5 14-3.12 5.454-7.287 9.954-12.5 13.5-9.734 3.922-13.9.756-12.5-9.5 3.25-7.743 8.417-13.743 15.5-18z"/><path style="opacity:1" fill="#f18d1c" d="M157.5 111.5c-.959-3.883-2.292-7.55-4-11a37.784 37.784 0 0 1-1.5-13c2.141-2.991 4.975-4.158 8.5-3.5a119.486 119.486 0 0 1 9 9.5l1-1.5c-2.228-6.407-3.728-12.907-4.5-19.5.95-3.28 2.95-5.613 6-7 1.987.654 3.32 1.987 4 4 3.735 11.753 3.235 23.253-1.5 34.5-1.667.667-3.333.667-5 0-6.642-7.363-7.476-6.53-2.5 2.5 1.13 4.883-.87 7.55-6 8-1.599-.571-2.766-1.571-3.5-3z"/><path style="opacity:.004" fill="#87baaa" d="M7.5 72.5c1.333.667 1.333.667 0 0z"/><path style="opacity:.93" fill="#12945b" d="M180.5 68.5a38.237 38.237 0 0 1 6 10 74.84 74.84 0 0 1 3 23c-.951 1.419-1.284 3.085-1 5a55.409 55.409 0 0 0-4 9c-.838.342-1.172 1.008-1 2-.667 0-1 .333-1 1-.838.342-1.172 1.008-1 2-.667 0-1 .333-1 1-.667 0-1 .333-1 1-2.254.624-3.921 1.957-5 4-.992-.172-1.658.162-2 1-.992-.172-1.658.162-2 1-.992-.172-1.658.162-2 1-1.291-.237-2.291.096-3 1-1.291-.237-2.291.096-3 1-1.915-.284-3.581.049-5 1-3.213-.31-6.213.023-9 1-.838.342-1.172 1.008-1 2-.838.342-1.172 1.008-1 2-.667 0-1 .333-1 1-2.667 2-5 4.333-7 7-.667 0-1 .333-1 1-.992-.172-1.658.162-2 1-.992-.172-1.658.162-2 1-.992-.172-1.658.162-2 1-1.333.333-1.333.667 0 1-1.066 1.192-1.899.859-2.5-1a19.602 19.602 0 0 0-3.5 2c-1.333.333-1.333.667 0 1-3.517 1.12-7.184 1.12-11 0-3.852-1.144-7.852-1.144-12 0 .418-.722 1.084-1.222 2-1.5-1.657-.725-2.657-.225-3 1.5-.838.342-1.172 1.008-1 2-.838.342-1.172 1.008-1 2-.667 0-1 .333-1 1-.838.342-1.172 1.008-1 2-.667 0-1 .333-1 1-3 2.333-5.667 5-8 8-.667 0-1 .333-1 1-.992-.172-1.658.162-2 1-.667 0-1 .333-1 1-.992-.172-1.658.162-2 1-.667 0-1 .333-1 1-.992-.172-1.658.162-2 1-1.291-.237-2.291.096-3 1-.992-.172-1.658.162-2 1a30.175 30.175 0 0 0-9 2.5l3 1c-1.634.494-3.3.66-5 .5.091-2.198-.575-2.531-2-1h-9v-1c21.278-2.294 35.945-13.294 44-33 20.686 2.816 36.686-4.35 48-21.5 33.193-4.523 45.193-23.023 36-55.5zm-78 84h-1c.343-1.725 1.343-2.225 3-1.5-.916.278-1.582.778-2 1.5z"/><path style="opacity:.004" fill="#6bb190" d="M186.5 78.5c.293-3.721.959-3.555 2 .5l-.5 1.5c-.278-.916-.778-1.582-1.5-2z"/><path style="opacity:.016" fill="#56ab7e" d="M189.5 84.5c1.113 1.446 1.28 3.113.5 5a12.93 12.93 0 0 1-.5-5z"/><path style="opacity:1" fill="#f18d1d" d="M96.5 87.5c9.234-1.2 17.067 1.466 23.5 8 2.401 7.13.568 12.964-5.5 17.5 3.818 5.823 7.651 11.656 11.5 17.5.711 1.867.211 3.367-1.5 4.5-2.778 2.258-5.778 2.758-9 1.5a452.935 452.935 0 0 1-5.5-16c-1.156-1.493-1.99-1.326-2.5.5 2.203 5.681 3.37 11.514 3.5 17.5-1.738.627-3.571.96-5.5 1-2.511.212-4.678-.455-6.5-2a487.982 487.982 0 0 0-2-39 44.072 44.072 0 0 0-3.5-7c.287-1.943 1.287-3.277 3-4z"/><path style="opacity:1" fill="#fbd3b4" d="m141.5 88.5 5 2c-2.779-.221-5.446.112-8 1l-9-2c4.066.193 8.066-.14 12-1z"/><path style="opacity:1" fill="#f7bb8a" d="m71.5 89.5 8 2a21.12 21.12 0 0 1-9-1c.124-.607.457-.94 1-1z"/><path style="opacity:.004" fill="#87baaa" d="M190.5 101.5a60.93 60.93 0 0 1 .5-11c.81 3.858.643 7.524-.5 11z"/><path style="opacity:1" fill="#f18c1b" d="M146.5 90.5c2.909 3.2 2.242 5.7-2 7.5-2.929.777-5.763.61-8.5-.5-.972-2.794-.139-4.794 2.5-6 2.554-.888 5.221-1.221 8-1z"/><path style="opacity:1" fill="#fff5ee" d="M102.5 97.5c2.357-.163 4.69.003 7 .5 2.994 3.253 2.494 5.753-1.5 7.5-4.049-1.086-5.882-3.753-5.5-8z"/><path style="opacity:1" fill="#f18d1d" d="M152.5 102.5c2.236 4.381 3.236 9.048 3 14-2.101 1.609-4.435 2.109-7 1.5a35.45 35.45 0 0 1-8-12.5c1.369-5.188 4.703-7.021 10-5.5.881.708 1.547 1.542 2 2.5z"/><path style="opacity:1" fill="#fde2ce" d="M153.5 100.5c1.708 3.45 3.041 7.117 4 11l-2 5c.236-4.952-.764-9.619-3-14 .838-.342 1.172-1.008 1-2z"/><path style="opacity:.004" fill="#6fb293" d="M189.5 101.5h1c.284 1.915-.049 3.581-1 5v-5z"/><path style="opacity:1" fill="#fffbf8" d="M64.5 106.5c11.558-1.618 15.725 3.049 12.5 14-7.207 10.694-17.04 14.861-29.5 12.5-2.495-3.985-2.661-8.152-.5-12.5 4.675-6.237 10.508-10.904 17.5-14z"/><path style="opacity:.016" fill="#5aac81" d="M188.5 106.5h1c-.333 4-.667 4-1 0z"/><path style="opacity:1" fill="#f18d1f" d="M126.5 91.5c2.556 1.043 4.723 2.71 6.5 5a82.703 82.703 0 0 1 9 19c1.207 3.812.207 6.812-3 9a22.725 22.725 0 0 1-3-7c-1.011-.837-2.178-1.17-3.5-1 1.301 4.098 1.135 8.098-.5 12-2.994 1.39-4.994.39-6-3a141.756 141.756 0 0 1-1-32c.717-.544 1.217-1.21 1.5-2z"/><path style="opacity:1" fill="#fef2e9" d="M129.5 102.5c3.21 2.418 4.876 5.752 5 10-1.644.214-3.144-.12-4.5-1a40.914 40.914 0 0 1-.5-9z"/><path style="opacity:.004" fill="#87baaa" d="M184.5 115.5c1.333.667 1.333 1.333 0 2v-2z"/><path style="opacity:.016" fill="#0c9e57" d="M183.5 117.5h1c-.185.67-.519.67-1 0z"/><path style="opacity:.004" fill="#87baaa" d="M182.5 118.5h1c.172.992-.162 1.658-1 2v-2zM181.5 120.5h1c-.185.67-.519.67-1 0z"/><path style="opacity:.016" fill="#0c9e57" d="M180.5 121.5h1c-.185.67-.519.67-1 0zM179.5 122.5h1c-.185.67-.519.67-1 0z"/><path style="opacity:.004" fill="#87baaa" d="M2.5 123.5c.667 0 1 .333 1 1 .667 0 1 .333 1 1-.397 1.025-1.063 1.192-2 .5-1.274-.977-1.274-1.811 0-2.5z"/><path style="opacity:.016" fill="#0c9e57" d="M174.5 126.5c1.333.667 1.333.667 0 0z"/><path style="opacity:.004" fill="#87baaa" d="M7.5 127.5c.868 2.392.201 2.559-2 .5a2.429 2.429 0 0 1 2-.5z"/><path style="opacity:.004" fill="#6ab18f" d="M172.5 128.5v-1h2c-.342.838-1.008 1.172-2 1z"/><path style="opacity:.004" fill="#87baaa" d="M9.5 128.5h1c.342.838 1.008 1.172 2 1v4c-.968 2.107-1.302 4.441-1 7-1.317-2.73-1.317-5.563 0-8.5-1.323-.816-1.99-1.983-2-3.5zM170.5 129.5v-1h2c-.342.838-1.008 1.172-2 1z"/><path style="opacity:.004" fill="#6ab18f" d="M168.5 130.5v-1h2c-.342.838-1.008 1.172-2 1z"/><path style="opacity:.004" fill="#6fb293" d="M165.5 130.5h3c-1.602 1.574-3.602 2.241-6 2v-1c1.291.237 2.291-.096 3-1zM157.5 133.5v-1h5c-1.419.951-3.085 1.284-5 1z"/><path style="opacity:.004" fill="#6bb190" d="M148.5 133.5h9c-2.89.745-5.89 1.412-9 2v-2z"/><path style="opacity:.004" fill="#6ab18f" d="M147.5 135.5h1c.172.992-.162 1.658-1 2v-2z"/><path style="opacity:.004" fill="#87baaa" d="M146.5 137.5h1c-.185.67-.519.67-1 0z"/><path style="opacity:.016" fill="#0c9e57" d="M145.5 138.5h1c-.185.67-.519.67-1 0z"/><path style="opacity:.004" fill="#87baaa" d="M11.5 140.5c.934 1.068 1.268 2.401 1 4-2.245-.792-2.578-2.125-1-4zM12.5 144.5h1c-.172.992.162 1.658 1 2-.172.992.162 1.658 1 2 .107 1.879-.393 2.212-1.5 1-1.009-1.525-1.509-3.192-1.5-5z"/><path style="opacity:.016" fill="#0c9e57" d="M138.5 145.5c1.333.667 1.333.667 0 0zM137.5 146.5h1c-.185.67-.519.67-1 0z"/><path style="opacity:.004" fill="#6ab18f" d="M135.5 148.5v-1h2c-.342.838-1.008 1.172-2 1z"/><path style="opacity:.004" fill="#87baaa" d="M133.5 149.5v-1h2c-.342.838-1.008 1.172-2 1zM131.5 150.5v-1h2c-.342.838-1.008 1.172-2 1z"/><path style="opacity:.016" fill="#5aac81" d="M125.5 152.5v-1c4 .333 4 .667 0 1z"/><path style="opacity:.016" fill="#58ab7f" d="M114.5 152.5c-2.466 1.134-5.133 1.301-8 .5a32.462 32.462 0 0 1 8-.5z"/><path style="opacity:.004" fill="#87baaa" d="M100.5 154.5c1.333.667 1.333 1.333 0 2v-2zM21.5 155.5c.667 0 1 .333 1 1-.997 1.213-1.997 1.046-3-.5a2.429 2.429 0 0 1 2-.5z"/><path style="opacity:.016" fill="#0c9e57" d="M99.5 156.5h1c-.185.67-.519.67-1 0z"/><path style="opacity:.016" fill="#22a05e" d="M123.5 157.5c3.811-1.145 7.811-1.312 12-.5a72.367 72.367 0 0 1-12 .5z"/><path style="opacity:.004" fill="#87baaa" d="M140.5 157.5c1.101-1.098 2.434-1.265 4-.5a8.43 8.43 0 0 1-4 .5zM148.5 157.5c1.101-1.098 2.434-1.265 4-.5a8.43 8.43 0 0 1-4 .5z"/><path style="opacity:.016" fill="#0c9e57" d="M177.5 157.5c1.101-1.098 2.434-1.265 4-.5a8.43 8.43 0 0 1-4 .5z"/><path style="opacity:.004" fill="#87baaa" d="M98.5 157.5h1c.172.992-.162 1.658-1 2v-2zM107.5 158.5c1.333.667 1.333.667 0 0zM119.5 159.5c-.667-1.333-.667-1.333 0 0z"/><path style="opacity:.004" fill="#76b499" d="M119.5 159.5c1.395-1.554 2.061-1.221 2 1-1.488 3.933-2.155 3.6-2-1z"/><path style="opacity:.682" fill="#14965d" d="M126.5 178.5a57.15 57.15 0 0 0-1-15 425.838 425.838 0 0 0 0 15 232.554 232.554 0 0 0-3-20h13v5h-4c.581 5.475-.086 10.642-2 15.5l2 1c-1.667.667-3.333.667-5 0 1.238-.69 1.238-1.19 0-1.5zm0 0h-1a425.838 425.838 0 0 1 0-15 57.15 57.15 0 0 1 1 15z"/><path style="opacity:.848" fill="#0c955c" d="M153.5 173.5c-1.948 4.253-5.281 5.92-10 5-1.667-1-3-2.333-4-4v-16h5v15h3v-15h6v15z"/><path style="opacity:.698" fill="#14965d" d="M172.5 165.5v6c-1.217 2.567-2.884 4.9-5 7-6.667.333-6.667.667 0 1-2.804 1.138-5.804 1.305-9 .5.071-6.956.071-14.123 0-21.5 7.033-1.771 11.699.562 14 7zm-6 2c-.768-.763-1.268-1.763-1.5-3-.801 2.867-.634 5.534.5 8-.06.543-.393.876-1 1a25.879 25.879 0 0 1-1-10h3v4zm0 0c1.178 1.838.845 3.505-1 5a20.69 20.69 0 0 1 1-5z"/><path style="opacity:.812" fill="#15975e" d="M176.5 158.5h6v20c-3.098-.087-3.432.413-1 1.5-1.333.667-2.667.667-4 0l1-1c-1.938-6.548-2.605-13.382-2-20.5z"/><path style="opacity:.779" fill="#19975f" d="M198.5 159.5c-.172.992.162 1.658 1 2v14c-.667 0-1 .333-1 1-1 .333-1.667 1-2 2-7.056.933-10.723-2.067-11-9a36.567 36.567 0 0 1 3.5-12c3.058.045 6.224.712 9.5 2zm-5 4a36.354 36.354 0 0 1 2 4.5 20.431 20.431 0 0 0-1.5 5.5 50.464 50.464 0 0 1-.5-10z"/><path style="opacity:.004" fill="#87baaa" d="M199.5 158.5v1c-.67-.481-.67-.815 0-1z"/><path style="opacity:.016" fill="#0c9e57" d="M97.5 159.5h1c-.185.67-.519.67-1 0z"/><path style="opacity:.016" fill="#209f5d" d="M145.5 158.5c1.148 4.481 1.315 9.148.5 14a98.432 98.432 0 0 1-.5-14z"/><path style="opacity:.004" fill="#87baaa" d="M154.5 173.5a98.432 98.432 0 0 1 .5-14c.815 4.852.648 9.519-.5 14z"/><path style="opacity:.004" fill="#84b8a7" d="M173.5 171.5c.295-2.235-.039-4.235-1-6 1.56-.355 2.393-2.355 2.5-6 .667 6 .667 12 0 18-.191-2.208-.691-4.208-1.5-6z"/><path style="opacity:.004" fill="#82b8a5" d="M185.5 169.5c.252 2.82-.248 5.486-1.5 8-.667-6-.667-12 0-18 1.412 3.436 1.912 6.769 1.5 10z"/><path style="opacity:.016" fill="#0c9e57" d="M96.5 160.5h1c-.185.67-.519.67-1 0z"/><path style="opacity:.708" fill="#0f965d" d="M118.5 159.5c.284 1.915-.049 3.581-1 5-1.686-1.647-3.353-1.814-5-.5.744 1.039 1.744 1.539 3 1.5 0 .667.333 1 1 1 2.436 1.579 3.769 3.912 4 7-.904.709-1.237 1.709-1 3-.667 0-1 .333-1 1-.667 0-1 .333-1 1-1.333.333-1.333.667 0 1-2.466 1.134-5.133 1.301-8 .5l5-1c-3.717-.002-6.05-1.669-7-5 .184-1.376.851-2.209 2-2.5 0 .667.333 1 1 1 1.208 1.282 2.542 1.282 4 0-.124-.607-.457-.94-1-1-.342-.838-1.008-1.172-2-1-.342-.838-1.008-1.172-2-1 0-.667-.333-1-1-1-2.406-5.765-.573-9.432 5.5-11 1.47.767 2.97 1.433 4.5 2zm-5 12c.543.06.876.393 1 1-1.458 1.282-2.792 1.282-4 0 1.291.237 2.291-.096 3-1z"/><path style="opacity:.004" fill="#79b59c" d="M138.5 174.5a185.762 185.762 0 0 1-2-13.5l1-2.5a64.873 64.873 0 0 1 1 16z"/><path style="opacity:.004" fill="#7eb7a1" d="M156.5 158.5c1.154 6.487 1.321 13.154.5 20-.5-6.658-.666-13.325-.5-20z"/><path style="opacity:.869" fill="#1a955b" d="M57.5 166.5c-2.217.869-4.55 1.202-7 1h-1a44.326 44.326 0 0 0-10-2l-8-5c9.673 2.825 19.34 2.492 29-1l2 .5c-1.103 2.757-2.77 4.924-5 6.5z"/><path style="opacity:.004" fill="#7fb7a3" d="M105.5 161.5c1.113 1.446 1.28 3.113.5 5a12.93 12.93 0 0 1-.5-5z"/><path style="opacity:.004" fill="#76b49a" d="M115.5 165.5c.342-.838 1.008-1.172 2-1 1.531 1.425 1.198 2.091-1 2-.667 0-1-.333-1-1z"/><path style="opacity:.016" fill="#32a366" d="M132.5 164.5a4.934 4.934 0 0 1 3 .5c-1.739 4.192-2.572 8.692-2.5 13.5a98.432 98.432 0 0 1-.5-14z"/><path style="opacity:.016" fill="#32a265" d="M166.5 167.5a20.69 20.69 0 0 0-1 5c-1.134-2.466-1.301-5.133-.5-8 .232 1.237.732 2.237 1.5 3z"/><path style="opacity:.016" fill="#47a773" d="M39.5 165.5v1c-2.667-.333-2.667-.667 0-1z"/><path style="opacity:.016" fill="#5aac81" d="M39.5 166.5a4.934 4.934 0 0 1 3 .5c-1.25.74-2.25.573-3-.5z"/><path style="opacity:.016" fill="#4fa978" d="M43.5 168.5c1.1-1.098 2.434-1.265 4-.5a8.43 8.43 0 0 1-4 .5z"/><path style="opacity:.004" fill="#87baaa" d="M49.5 167.5h1l5 2c-.667 0-1 .333-1 1a31.91 31.91 0 0 0-6-1.5c.556-.383.89-.883 1-1.5z"/><path style="opacity:.016" fill="#0c9e57" d="M88.5 168.5c1.333.667 1.333.667 0 0z"/><path style="opacity:.004" fill="#71b395" d="M108.5 168.5c.667 0 1 .333 1 1v1c-1.924-.211-2.257-.877-1-2z"/><path style="opacity:.016" fill="#0c9e57" d="M87.5 169.5h1c-.185.67-.519.67-1 0z"/><path style="opacity:.004" fill="#76b49a" d="M85.5 170.5h2c-.473 1.406-1.473 2.073-3 2v-1c.667 0 1-.333 1-1z"/><path style="opacity:.016" fill="#0c9e57" d="M109.5 171.5v-1h2c.342.838 1.008 1.172 2 1-.709.904-1.709 1.237-3 1-.667 0-1-.333-1-1z"/><path style="opacity:.004" fill="#87baaa" d="M121.5 173.5a2.428 2.428 0 0 1 .5-2c.692.937.525 1.603-.5 2zM82.5 173.5v-1h2c-.342.838-1.008 1.172-2 1z"/><path style="opacity:.016" fill="#47a773" d="M105.5 171.5c1.113 1.446 1.28 3.113.5 5a12.93 12.93 0 0 1-.5-5z"/><path style="opacity:.016" fill="#5aac81" d="M172.5 171.5h1c-.333 4-.667 4-1 0z"/><path style="opacity:.016" fill="#0c9e57" d="M81.5 173.5h1c-.185.67-.519.67-1 0z"/><path style="opacity:.004" fill="#87baaa" d="M153.5 173.5h1c-.333 2.667-.667 2.667-1 0z"/><path style="opacity:.004" fill="#6ab18f" d="M79.5 175.5v-1h2c-.342.838-1.008 1.172-2 1z"/><path style="opacity:.016" fill="#5aac81" d="M120.5 173.5h1c.237 1.291-.096 2.291-1 3v-3zM76.5 176.5v-1h3c-.709.904-1.709 1.237-3 1z"/><path style="opacity:.004" fill="#6ab18f" d="M138.5 174.5h1c-.333 2.667-.667 2.667-1 0z"/><path style="opacity:.004" fill="#87baaa" d="M74.5 176.5h2c-.667 1.333-1.333 1.333-2 0zM119.5 176.5h1c-.185.67-.519.67-1 0zM198.5 176.5h1v2c-.838-.342-1.172-1.008-1-2zM118.5 177.5h1c-.185.67-.519.67-1 0zM45.5 178.5c1.333.667 1.333.667 0 0z"/><path style="opacity:.004" fill="#7bb69e" d="M48.5 178.5c1.132.854 2.465.854 4 0v1c2.066 1.295 4.733 1.295 8 0h1c.342.838 1.008 1.172 2 1a309.272 309.272 0 0 1-13.5 2c-2.428-.789-2.928-2.123-1.5-4z"/><path style="opacity:.004" fill="#87baaa" d="M117.5 178.5h1c-.185.67-.519.67-1 0z"/><path style="opacity:.016" fill="#0c9e57" d="M167.5 178.5c1.333.667 1.333.667 0 0z"/><path style="opacity:.004" fill="#87baaa" d="M196.5 178.5c1.333.667 1.333.667 0 0z"/><path style="opacity:.016" fill="#52aa7a" d="M143.5 178.5c1.792.809 3.792 1.309 6 1.5-2.879.874-5.545.54-8-1a2.428 2.428 0 0 1 2-.5z"/><path style="opacity:.016" fill="#4aa875" d="M196.5 179.5c-2.128 1.129-4.461 1.296-7 .5a24.935 24.935 0 0 1 7-.5z"/></svg>