<svg xmlns="http://www.w3.org/2000/svg" width="200" height="200" style="shape-rendering:geometricPrecision;text-rendering:geometricPrecision;image-rendering:optimizeQuality;fill-rule:evenodd;clip-rule:evenodd"><path style="opacity:.953" fill="#fdf7f2" d="M147.5 34.5c.342.838 1.008 1.172 2 1 .342.838 1.008 1.172 2 1a96.562 96.562 0 0 1 11 7c0 .667.333 1 1 1a77.393 77.393 0 0 1 16 20c-.172.992.162 1.658 1 2v2c9.206 32.444-2.794 50.944-36 55.5-7.205 12.193-17.872 19.193-32 21-5.392.087-10.726.253-16 .5-5.753 14.754-16.087 24.754-31 30a243.564 243.564 0 0 0-15 4 4.934 4.934 0 0 1-3-.5c2.947-2.436 5.28-5.269 7-8.5.667 0 1-.333 1-1 1.406-.473 2.073-1.473 2-3 2.757-1.871 4.09-4.205 4-7-10.01 3.386-20.01 3.719-30 1a54.321 54.321 0 0 1-9-4c0-.667-.333-1-1-1a6.544 6.544 0 0 0-3-3c0-.667-.333-1-1-1-3.43-5.474-5.097-11.474-5-18 1.333-1.333 1.333-2.667 0-4-1.43-1.037-3.097-1.704-5-2a25.645 25.645 0 0 1-6-6c-.296-1.903-.963-3.57-2-5v-20c1.333-.333 1.333-.667 0-1v-1a162.265 162.265 0 0 1 10-22c2.635-3.643 5.302-7.31 8-11 .667 0 1-.333 1-1 4.333-5 9-9.667 14-14 .667 0 1-.333 1-1 9.665-7.556 20.665-11.556 33-12 1.333 1.333 2.667 1.333 4 0 5.465-13.062 15.132-17.562 29-13.5a27.83 27.83 0 0 1 8 6c13.884.305 27.217 3.138 40 8.5z"/><path style="opacity:1" fill="#f18d1e" d="M84.5 24.5c6.093-.36 12.093.14 18 1.5 5.008 3.085 5.342 6.752 1 11-7.925 4.492-16.259 5.492-25 3-5.77-2.748-6.437-6.414-2-11a48.492 48.492 0 0 1 8-4.5z"/><path style="opacity:.004" fill="#64ad6c" d="M66.5 32.5c-1.7.16-3.366-.007-5-.5 1.887-.78 3.554-.613 5 .5z"/><path style="opacity:.008" fill="#d0e6d1" d="M70.5 33.5h-4v-1c1.624.14 2.79-.527 3.5-2 .483.948.65 1.948.5 3z"/><path style="opacity:1" fill="#f18d1b" d="M141.5 88.5a52.416 52.416 0 0 1-13 1c-9.085-.604-14.585-5.27-16.5-14-2.358-13.842-1.691-27.508 2-41l2.5-2.5a42.498 42.498 0 0 1 13 0 108.537 108.537 0 0 1 22 8c1.511 2.782.678 4.615-2.5 5.5-11.762-6.7-17.929-3.366-18.5 10 .404 7.974 3.404 14.808 9 20.5 7.648.87 11.982-2.63 13-10.5-2.827 1.474-5.327 1.14-7.5-1-4.5-7.145-2.667-11.978 5.5-14.5 14.317-4.68 19.483.153 15.5 14.5-4.438 11.935-12.605 19.935-24.5 24z"/><path style="opacity:.004" fill="#a2cda5" d="M147.5 34.5c2.166-1.129 4.166-.629 6 1.5a2.427 2.427 0 0 1-2 .5c-.342-.838-1.008-1.172-2-1-.342-.838-1.008-1.172-2-1z"/><path style="opacity:.008" fill="#fafdfb" d="M42.5 37.5c1.333.667 1.333.667 0 0z"/><path style="opacity:.004" fill="#a1cda4" d="M162.5 43.5c.997-1.212 1.997-1.046 3 .5a2.427 2.427 0 0 1-2 .5c-.667 0-1-.333-1-1z"/><path style="opacity:.004" fill="#83bd88" d="M33.5 45.5c-.667 0-1 .333-1 1-2.475-.247-2.475-.913 0-2 .607.124.94.457 1 1z"/><path style="opacity:1" fill="#f18d1b" d="M88.5 43.5a55.81 55.81 0 0 1 16 1.5l2.5 2.5a96.616 96.616 0 0 1-1 26c-3.852 12.785-10.853 15.118-21 7-5.34-9.69-7.34-20.024-6-31 2.855-2.727 6.022-4.727 9.5-6z"/><path style="opacity:1" fill="#f18d1b" d="M71.5 89.5c-.543.06-.876.393-1 1a21.12 21.12 0 0 0 9 1c9.072 1.572 14.239 6.905 15.5 16 .997 25.491-10.836 41.657-35.5 48.5a91.35 91.35 0 0 1-24 1c-9.281-2.281-14.781-8.114-16.5-17.5a114.67 114.67 0 0 0-1.5-15c-6.548-1.052-10.715-4.719-12.5-11C5.316 86.036 16.816 64.536 39.5 49c7.29-5.049 15.29-6.715 24-5 5.745 2.263 9.578 6.43 11.5 12.5 2.723 11.455 1.556 22.455-3.5 33z"/><path style="opacity:.004" fill="#a1cda4" d="M18.5 60.5c-.667 0-1 .333-1 1-1.212-.997-1.046-1.997.5-3 .464.594.631 1.261.5 2z"/><path style="opacity:.008" fill="#d0e6d2" d="M180.5 66.5c.172-.992-.162-1.658-1-2-.107-1.879.393-2.212 1.5-1 .74 1.25.573 2.25-.5 3z"/><path style="opacity:1" fill="#fefbf8" d="M45.5 66.5c10.298-.434 13.465 4.233 9.5 14-4.493 9.877-11.993 14.71-22.5 14.5-2.894-2.909-3.727-6.409-2.5-10.5 3.25-7.743 8.417-13.743 15.5-18z"/><path style="opacity:1" fill="#f18d1d" d="M157.5 111.5c-.959-3.883-2.292-7.55-4-11a37.784 37.784 0 0 1-1.5-13c2.141-2.991 4.975-4.158 8.5-3.5a119.486 119.486 0 0 1 9 9.5l1-1.5c-2.228-6.407-3.728-12.907-4.5-19.5.95-3.28 2.95-5.613 6-7 1.987.654 3.32 1.987 4 4 3.735 11.753 3.235 23.253-1.5 34.5-1.667.667-3.333.667-5 0-6.642-7.363-7.476-6.53-2.5 2.5 1.13 4.883-.87 7.55-6 8-1.599-.571-2.766-1.571-3.5-3z"/><path style="opacity:.008" fill="#c9e2ca" d="M9.5 72.5h-1c.333-2.667.667-2.667 1 0z"/><path style="opacity:.008" fill="#fafdfb" d="M8.5 72.5c-.667.667-.667.667 0 0z"/><path style="opacity:.004" fill="#469f67" d="M186.5 78.5c.293-3.721.959-3.555 2 .5l-.5 1.5c-.278-.916-.778-1.582-1.5-2z"/><path style="opacity:.955" fill="#0c935a" d="M180.5 68.5a38.237 38.237 0 0 1 6 10 74.84 74.84 0 0 1 3 23c-.951 1.419-1.284 3.085-1 5a55.409 55.409 0 0 0-4 9c-.838.342-1.172 1.008-1 2-.667 0-1 .333-1 1-.838.342-1.172 1.008-1 2-.667 0-1 .333-1 1-.667 0-1 .333-1 1-2.254.624-3.921 1.957-5 4-.992-.172-1.658.162-2 1-.992-.172-1.658.162-2 1-.992-.172-1.658.162-2 1-1.291-.237-2.291.096-3 1-1.291-.237-2.291.096-3 1-1.915-.284-3.581.049-5 1-3.213-.31-6.213.023-9 1-.838.342-1.172 1.008-1 2-.838.342-1.172 1.008-1 2-.667 0-1 .333-1 1-2.667 2-5 4.333-7 7-.667 0-1 .333-1 1-.992-.172-1.658.162-2 1-.992-.172-1.658.162-2 1-.992-.172-1.658.162-2 1-2.286.095-4.286.762-6 2-1.333.333-1.333.667 0 1-2.466 1.134-5.133 1.301-8 .5l6-1a271.19 271.19 0 0 1-19.5-1.5c-1.376.184-2.209.851-2.5 2-.838.342-1.172 1.008-1 2-.838.342-1.172 1.008-1 2-.667 0-1 .333-1 1-.838.342-1.172 1.008-1 2-.667 0-1 .333-1 1-3 2.333-5.667 5-8 8-.667 0-1 .333-1 1-.992-.172-1.658.162-2 1-.667 0-1 .333-1 1-.992-.172-1.658.162-2 1-.667 0-1 .333-1 1-.992-.172-1.658.162-2 1-1.291-.237-2.291.096-3 1-.992-.172-1.658.162-2 1a51.56 51.56 0 0 1-7 1c-1-.333-1.667-1-2-2 14.913-5.246 25.247-15.246 31-30a522.098 522.098 0 0 1 16-.5c14.128-1.807 24.795-8.807 32-21 33.206-4.556 45.206-23.056 36-55.5z"/><path style="opacity:.016" fill="#209064" d="M189.5 84.5c1.113 1.446 1.28 3.113.5 5a12.93 12.93 0 0 1-.5-5z"/><path style="opacity:1" fill="#f18d1d" d="M96.5 87.5c9.234-1.2 17.067 1.466 23.5 8 2.584 7.58.417 13.413-6.5 17.5a92.237 92.237 0 0 1 13 19c-2.562 4.283-6.229 5.783-11 4.5a452.935 452.935 0 0 1-5.5-16c-1.156-1.493-1.99-1.326-2.5.5 2.203 5.681 3.37 11.514 3.5 17.5-1.738.627-3.571.96-5.5 1-2.511.212-4.678-.455-6.5-2a487.982 487.982 0 0 0-2-39 44.072 44.072 0 0 0-3.5-7c.287-1.943 1.287-3.277 3-4z"/><path style="opacity:1" fill="#fbd3b4" d="m141.5 88.5 5 2c-2.779-.221-5.446.112-8 1l-10-2a52.416 52.416 0 0 0 13-1z"/><path style="opacity:1" fill="#f7bb8a" d="m71.5 89.5 8 2a21.12 21.12 0 0 1-9-1c.124-.607.457-.94 1-1z"/><path style="opacity:.008" fill="#2b8172" d="M190.5 101.5a60.93 60.93 0 0 1 .5-11c.81 3.858.643 7.524-.5 11z"/><path style="opacity:1" fill="#f18b1b" d="M146.5 90.5c2.909 3.2 2.242 5.7-2 7.5-2.929.777-5.763.61-8.5-.5-.972-2.794-.139-4.794 2.5-6 2.554-.888 5.221-1.221 8-1z"/><path style="opacity:1" fill="#fff5ee" d="M102.5 97.5c2.357-.163 4.69.003 7 .5 2.994 3.253 2.494 5.753-1.5 7.5-4.049-1.086-5.882-3.753-5.5-8z"/><path style="opacity:1" fill="#f18d1f" d="M152.5 102.5c2.236 4.381 3.236 9.048 3 14-2.101 1.609-4.435 2.109-7 1.5a35.45 35.45 0 0 1-8-12.5c1.369-5.188 4.703-7.021 10-5.5.881.708 1.547 1.542 2 2.5z"/><path style="opacity:1" fill="#f18d21" d="M126.5 91.5c4.317 2.153 7.484 5.486 9.5 10 4.436 6.449 6.269 13.449 5.5 21a11.38 11.38 0 0 1-2.5 2 41.08 41.08 0 0 0-4.5-8 52.141 52.141 0 0 0-1.5 10c-1.478 3.493-3.478 3.826-6 1a22.508 22.508 0 0 1-2-7c-.667-9-.667-18 0-27 .717-.544 1.217-1.21 1.5-2z"/><path style="opacity:1" fill="#fef2e9" d="M129.5 102.5c3.21 2.418 4.876 5.752 5 10-1.644.214-3.144-.12-4.5-1a40.914 40.914 0 0 1-.5-9z"/><path style="opacity:1" fill="#fde2ce" d="M153.5 100.5c1.708 3.45 3.041 7.117 4 11l-2 5c.236-4.952-.764-9.619-3-14 .838-.342 1.172-1.008 1-2z"/><path style="opacity:.016" fill="#289265" d="M189.5 101.5h1c.284 1.915-.049 3.581-1 5v-5z"/><path style="opacity:1" fill="#fefbf8" d="M64.5 106.5c11.558-1.618 15.725 3.049 12.5 14-7.207 10.694-17.04 14.861-29.5 12.5-2.495-3.985-2.661-8.152-.5-12.5 4.675-6.237 10.508-10.904 17.5-14z"/><path style="opacity:.016" fill="#309764" d="M188.5 106.5h1c-.333 4-.667 4-1 0z"/><path style="opacity:.008" fill="#348771" d="M184.5 115.5c1.333.667 1.333 1.333 0 2v-2z"/><path style="opacity:.016" fill="#0c9e57" d="M183.5 117.5h1c-.185.67-.519.67-1 0z"/><path style="opacity:.004" fill="#4e996f" d="M182.5 118.5h1c.172.992-.162 1.658-1 2v-2z"/><path style="opacity:.008" fill="#037572" d="M181.5 120.5h1c-.185.67-.519.67-1 0z"/><path style="opacity:.016" fill="#0c9e57" d="M180.5 121.5h1c-.185.67-.519.67-1 0z"/><path style="opacity:.004" fill="#97c79b" d="M1.5 121.5a2.427 2.427 0 0 1-.5 2c-.692-.937-.525-1.603.5-2z"/><path style="opacity:.016" fill="#0c9e57" d="M179.5 122.5h1c-.185.67-.519.67-1 0zM174.5 126.5c1.333.667 1.333.667 0 0z"/><path style="opacity:.008" fill="#c9e2ca" d="M7.5 127.5v1c-2.667-.333-2.667-.667 0-1z"/><path style="opacity:.004" fill="#4fa865" d="M172.5 128.5v-1h2c-.342.838-1.008 1.172-2 1z"/><path style="opacity:.008" fill="#fafdfb" d="M7.5 128.5c1.333.667 1.333.667 0 0z"/><path style="opacity:.008" fill="#037572" d="M170.5 129.5v-1h2c-.342.838-1.008 1.172-2 1z"/><path style="opacity:.008" fill="#fafdfb" d="M12.5 129.5v4c-.686-1.348-1.686-2.515-3-3.5a4.934 4.934 0 0 1 3-.5z"/><path style="opacity:.008" fill="#10826a" d="M168.5 130.5v-1h2c-.342.838-1.008 1.172-2 1z"/><path style="opacity:.004" fill="#48a068" d="M165.5 130.5h3c-1.602 1.574-3.602 2.241-6 2v-1c1.291.237 2.291-.096 3-1z"/><path style="opacity:.016" fill="#289265" d="M157.5 133.5v-1h5c-1.419.951-3.085 1.284-5 1z"/><path style="opacity:.008" fill="#23886a" d="M148.5 133.5h9c-2.89.745-5.89 1.412-9 2v-2z"/><path style="opacity:.004" fill="#4fa865" d="M147.5 135.5h1c.172.992-.162 1.658-1 2v-2z"/><path style="opacity:.008" fill="#037572" d="M146.5 137.5h1c-.185.67-.519.67-1 0z"/><path style="opacity:.016" fill="#0c9e57" d="M145.5 138.5h1c-.185.67-.519.67-1 0zM138.5 145.5c1.333.667 1.333.667 0 0zM137.5 146.5h1c-.185.67-.519.67-1 0z"/><path style="opacity:.004" fill="#4fa865" d="M135.5 148.5v-1h2c-.342.838-1.008 1.172-2 1z"/><path style="opacity:.008" fill="#037572" d="M133.5 149.5v-1h2c-.342.838-1.008 1.172-2 1zM131.5 150.5v-1h2c-.342.838-1.008 1.172-2 1z"/><path style="opacity:.008" fill="#10826a" d="M131.5 150.5c-.397 1.025-1.063 1.192-2 .5a2.428 2.428 0 0 1 2-.5z"/><path style="opacity:.016" fill="#12935f" d="M102.5 152.5c.751-1.073 1.751-1.24 3-.5a4.934 4.934 0 0 1-3 .5z"/><path style="opacity:.016" fill="#128966" d="M125.5 152.5v-1c4 .333 4 .667 0 1z"/><path style="opacity:.004" fill="#83bd88" d="M17.5 151.5c.667 0 1 .333 1 1-.247 2.475-.913 2.475-2 0 .124-.607.457-.94 1-1z"/><path style="opacity:.016" fill="#259164" d="M106.5 153.5c2.466-1.134 5.133-1.301 8-.5a32.462 32.462 0 0 1-8 .5z"/><path style="opacity:.008" fill="#348771" d="M101.5 152.5h1c.172.992-.162 1.658-1 2v-2z"/><path style="opacity:.008" fill="#037572" d="M100.5 154.5h1c.172.992-.162 1.658-1 2v-2z"/><path style="opacity:.004" fill="#83bd88" d="M21.5 155.5c.667 0 1 .333 1 1-.997 1.213-1.997 1.046-3-.5a2.429 2.429 0 0 1 2-.5z"/><path style="opacity:.016" fill="#0c9e57" d="M99.5 156.5h1c-.185.67-.519.67-1 0z"/><path style="opacity:.016" fill="#1b9f59" d="M123.5 157.5c3.811-1.145 7.811-1.312 12-.5a72.367 72.367 0 0 1-12 .5z"/><path style="opacity:.008" fill="#267f72" d="M140.5 157.5c1.101-1.098 2.434-1.265 4-.5a8.43 8.43 0 0 1-4 .5z"/><path style="opacity:.008" fill="#037572" d="M148.5 157.5c1.101-1.098 2.434-1.265 4-.5a8.43 8.43 0 0 1-4 .5z"/><path style="opacity:.016" fill="#0c9e57" d="M177.5 157.5c1.101-1.098 2.434-1.265 4-.5a8.43 8.43 0 0 1-4 .5z"/><path style="opacity:.008" fill="#348771" d="M98.5 157.5h1c.172.992-.162 1.658-1 2v-2z"/><path style="opacity:.004" fill="#64ad6c" d="M107.5 158.5c1.333.667 1.333.667 0 0zM119.5 159.5c-.667-1.333-.667-1.333 0 0z"/><path style="opacity:.723" fill="#07945b" d="M126.5 178.5a57.15 57.15 0 0 0-1-15 425.838 425.838 0 0 0 0 15 232.554 232.554 0 0 0-3-20h13v5h-4v15h-5zm0 0h-1a425.838 425.838 0 0 1 0-15 57.15 57.15 0 0 1 1 15z"/><path style="opacity:.814" fill="#09955b" d="M153.5 173.5c-1.948 4.253-5.281 5.92-10 5-1.667-1-3-2.333-4-4v-16h5v15h3v-15h6v15z"/><path style="opacity:.746" fill="#09945b" d="M172.5 165.5v6c-1.217 2.567-2.884 4.9-5 7h-9v-20c7.033-1.771 11.699.562 14 7zm-7 7c-.06.543-.393.876-1 1a25.879 25.879 0 0 1-1-10h3c.12 1.699.454 3.365 1 5-.168 1.671-.835 3.004-2 4z"/><path style="opacity:.813" fill="#07955b" d="M176.5 158.5h6v20h-6v-20z"/><path style="opacity:.004" fill="#64ad6c" d="M199.5 158.5v1c-.67-.481-.67-.815 0-1z"/><path style="opacity:.016" fill="#0c9e57" d="M97.5 159.5h1c-.185.67-.519.67-1 0z"/><path style="opacity:.008" fill="#21836d" d="M119.5 159.5c1.395-1.554 2.061-1.221 2 1-1.488 3.933-2.155 3.6-2-1z"/><path style="opacity:.016" fill="#2f9167" d="M138.5 174.5a185.762 185.762 0 0 1-2-13.5l1-2.5a64.873 64.873 0 0 1 1 16z"/><path style="opacity:.016" fill="#0e9b5a" d="M145.5 158.5c1.148 4.481 1.315 9.148.5 14a98.432 98.432 0 0 1-.5-14z"/><path style="opacity:.004" fill="#64ad6c" d="M154.5 173.5a98.432 98.432 0 0 1 .5-14c.815 4.852.648 9.519-.5 14z"/><path style="opacity:.004" fill="#57a36d" d="M173.5 171.5c.295-2.235-.039-4.235-1-6 1.56-.355 2.393-2.355 2.5-6 .667 6 .667 12 0 18-.191-2.208-.691-4.208-1.5-6z"/><path style="opacity:.004" fill="#53a16d" d="M183.5 159.5c1.398 1.277 2.064 2.943 2 5a43.366 43.366 0 0 1-1.5 13 162.597 162.597 0 0 1-.5-18z"/><path style="opacity:.016" fill="#0c9e57" d="M96.5 160.5h1c-.185.67-.519.67-1 0z"/><path style="opacity:.008" fill="#1a7d70" d="M156.5 158.5c1.154 6.487 1.321 13.154.5 20-.5-6.658-.666-13.325-.5-20z"/><path style="opacity:.807" fill="#08935c" d="M198.5 159.5c-.172.992.162 1.658 1 2v14c-.667 0-1 .333-1 1-1 .333-1.667 1-2 2-3.787.686-6.954-.314-9.5-3-1.126-6.29-.459-12.29 2-18 3.058.045 6.224.712 9.5 2zm-5 4c2.356 3.12 2.522 6.454.5 10a50.464 50.464 0 0 1-.5-10z"/><path style="opacity:.882" fill="#1c945c" d="M57.5 166.5c-2.246.71-4.58 1.21-7 1.5 1.882.198 3.548.698 5 1.5-.667 0-1 .333-1 1a31.91 31.91 0 0 0-6-1.5c1.333-.667 1.333-1.333 0-2a70.529 70.529 0 0 0-9-1.5l-8-5c9.99 2.719 19.99 2.386 30-1 .09 2.795-1.243 5.129-4 7z"/><path style="opacity:.008" fill="#1b7d70" d="M106.5 166.5c-1.113-1.446-1.28-3.113-.5-5a12.93 12.93 0 0 1 .5 5z"/><path style="opacity:.008" fill="#29876d" d="M115.5 165.5c.342-.838 1.008-1.172 2-1 1.531 1.425 1.198 2.091-1 2 0-.667-.333-1-1-1z"/><path style="opacity:.016" fill="#239e5b" d="M132.5 164.5a4.934 4.934 0 0 1 3 .5c-1.739 4.192-2.572 8.692-2.5 13.5a98.432 98.432 0 0 1-.5-14z"/><path style="opacity:.016" fill="#27a05b" d="M165.5 172.5c-1.134-2.466-1.301-5.133-.5-8a28.931 28.931 0 0 0 1.5 4 6.846 6.846 0 0 0-1 4z"/><path style="opacity:.016" fill="#129061" d="M39.5 165.5v1c-2.667-.333-2.667-.667 0-1z"/><path style="opacity:.016" fill="#309764" d="M39.5 166.5a4.934 4.934 0 0 1 3 .5c-1.25.74-2.25.573-3-.5z"/><path style="opacity:.016" fill="#138d63" d="M43.5 168.5c1.1-1.098 2.434-1.265 4-.5a8.43 8.43 0 0 1-4 .5z"/><path style="opacity:.004" fill="#4e996f" d="M106.5 166.5h1v2c-.838-.342-1.172-1.008-1-2z"/><path style="opacity:.016" fill="#0c9e57" d="M88.5 168.5c1.333.667 1.333.667 0 0z"/><path style="opacity:.004" fill="#55a967" d="M107.5 168.5h1c0 .667.333 1 1 1v1c-1.333 0-2-.667-2-2z"/><path style="opacity:.016" fill="#0c9e57" d="M87.5 169.5h1c-.185.67-.519.67-1 0z"/><path style="opacity:.004" fill="#4a9e6a" d="M85.5 170.5h2c-.473 1.406-1.473 2.073-3 2v-1c.667 0 1-.333 1-1z"/><path style="opacity:.016" fill="#0c9e57" d="M109.5 171.5v-1h2c.342.838 1.008 1.172 2 1-.709.904-1.709 1.237-3 1 0-.667-.333-1-1-1z"/><path style="opacity:.004" fill="#64ad6c" d="M121.5 173.5a2.428 2.428 0 0 1 .5-2c.692.937.525 1.603-.5 2z"/><path style="opacity:.008" fill="#348771" d="M82.5 173.5v-1h2c-.342.838-1.008 1.172-2 1z"/><path style="opacity:.016" fill="#289960" d="M105.5 171.5c1.113 1.446 1.28 3.113.5 5a12.93 12.93 0 0 1-.5-5z"/><path style="opacity:.016" fill="#309764" d="M172.5 171.5h1c-.333 4-.667 4-1 0z"/><path style="opacity:.016" fill="#0c9e57" d="M81.5 173.5h1c-.185.67-.519.67-1 0z"/><path style="opacity:.95" fill="#0b955c" d="M118.5 159.5c.284 1.915-.049 3.581-1 5-1.686-1.647-3.353-1.814-5-.5.744 1.039 1.744 1.539 3 1.5.667 0 1 .333 1 1 2.436 1.579 3.769 3.912 4 7-.904.709-1.237 1.709-1 3-.667 0-1 .333-1 1-.667 0-1 .333-1 1-1.333.333-1.333.667 0 1-2.466 1.134-5.133 1.301-8 .5l5-1c-3.717-.002-6.05-1.669-7-5 .184-1.376.851-2.209 2-2.5.667 0 1 .333 1 1 1.208 1.282 2.542 1.282 4 0-.124-.607-.457-.94-1-1-.342-.838-1.008-1.172-2-1-.342-.838-1.008-1.172-2-1-.667 0-1-.333-1-1 .172-.992-.162-1.658-1-2 .482-7.693 4.149-10.026 11-7zm-5 12c.543.06.876.393 1 1-1.458 1.282-2.792 1.282-4 0 1.291.237 2.291-.096 3-1z"/><path style="opacity:.008" fill="#037572" d="M153.5 173.5h1c-.333 2.667-.667 2.667-1 0z"/><path style="opacity:.004" fill="#4fa865" d="M79.5 175.5v-1h2c-.342.838-1.008 1.172-2 1z"/><path style="opacity:.016" fill="#44a562" d="M120.5 173.5h1c.237 1.291-.096 2.291-1 3v-3zM76.5 176.5v-1h3c-.709.904-1.709 1.237-3 1z"/><path style="opacity:.008" fill="#10826a" d="M138.5 174.5h1c-.333 2.667-.667 2.667-1 0z"/><path style="opacity:.008" fill="#037572" d="M74.5 176.5h2c-.667 1.333-1.333 1.333-2 0zM119.5 176.5h1c-.185.67-.519.67-1 0z"/><path style="opacity:.004" fill="#64ad6c" d="M198.5 176.5h1v2c-.838-.342-1.172-1.008-1-2z"/><path style="opacity:.622" fill="#4ca279" d="M65.5 175.5c.333 1 1 1.667 2 2-.418.722-1.084 1.222-2 1.5l3 1c-1.634.494-3.3.66-5 .5-4.816 1.15-9.816 1.316-15 .5l4-1a2.429 2.429 0 0 0-2-.5 243.564 243.564 0 0 1 15-4zm-2 5c-2.5-.011-2.668-.678-.5-2 .464.594.631 1.261.5 2z"/><path style="opacity:.008" fill="#037572" d="M118.5 177.5h1c-.185.67-.519.67-1 0z"/><path style="opacity:.004" fill="#64ad6c" d="M45.5 178.5c1.333.667 1.333.667 0 0z"/><path style="opacity:.008" fill="#037572" d="M117.5 178.5h1c-.185.67-.519.67-1 0z"/><path style="opacity:.016" fill="#0c9e57" d="M167.5 178.5c1.333.667 1.333.667 0 0z"/><path style="opacity:.008" fill="#037572" d="M196.5 178.5c1.333.667 1.333.667 0 0z"/><path style="opacity:.016" fill="#289960" d="M126.5 180.5c1.446-1.113 3.113-1.28 5-.5a12.93 12.93 0 0 1-5 .5z"/><path style="opacity:.016" fill="#2a9663" d="M143.5 178.5c1.792.809 3.792 1.309 6 1.5-2.879.874-5.545.54-8-1a2.428 2.428 0 0 1 2-.5z"/><path style="opacity:.016" fill="#209760" d="M167.5 179.5c-2.804 1.138-5.804 1.305-9 .5a40.914 40.914 0 0 1 9-.5z"/><path style="opacity:.016" fill="#138d63" d="M177.5 180.5c1.101-1.098 2.434-1.265 4-.5a8.43 8.43 0 0 1-4 .5z"/><path style="opacity:.016" fill="#138f62" d="M196.5 179.5c-2.128 1.129-4.461 1.296-7 .5a24.935 24.935 0 0 1 7-.5z"/></svg>