<svg xmlns="http://www.w3.org/2000/svg" width="70" height="70" style="shape-rendering:geometricPrecision;text-rendering:geometricPrecision;image-rendering:optimizeQuality;fill-rule:evenodd;clip-rule:evenodd"><path style="opacity:1" fill="#f19125" d="M35.5 8.5c1.67 2.663 1.003 4.33-2 5h-6c-2.606-1.35-2.606-2.85 0-4.5a32.437 32.437 0 0 1 8-.5z"/><path style="opacity:1" fill="#f7bc7a" d="M27.5 13.5h6l2 2h-6l-2-2z"/><path style="opacity:1" fill="#f19023" d="M25.5 19.5c1.46 3.788 1.128 7.454-1 11l6 2.5c1.323.816 1.99 1.983 2 3.5v6c-2.307 8.626-7.973 12.626-17 12-2.753.147-5.253-.52-7.5-2-.427-4.88-2.427-8.88-6-12-.858-9.126 2.309-16.626 9.5-22.5 3.123-3.02 6.79-4.02 11-3 1.641 1.129 2.641 2.629 3 4.5zM29.5 15.5h6c.617.11 1.117.444 1.5 1 1.193 4.652.36 8.819-2.5 12.5-1.612.72-3.112.554-4.5-.5-1.904-3.423-2.737-7.09-2.5-11 .333-1 1-1.667 2-2z"/><path style="opacity:.552" fill="#fcf1e4" d="M35.5 8.5h2c12.094-.629 20.76 4.371 26 15 .569 5.277-.264 10.277-2.5 15-2.995 2.61-6.495 3.944-10.5 4l3-2 2-1c3.622-.602 3.955-2.102 1-4.5 1.496-.507 2.663-.007 3.5 1.5 3.246-4.697 3.246-9.364 0-14-2.868 2.695-3.034 5.695-.5 9-1.28.484-2.28-.183-3-2l-2-2c2.604-2.866 3.77-6.2 3.5-10-3.626-1.678-6.46-.845-8.5 2.5a12.215 12.215 0 0 0 3 4c-2.635 3.366-4.802 2.866-6.5-1.5a12.5 12.5 0 0 1 0-7c8.566-.222 8.4-1.722-.5-4.5-2.525-.896-4.692-.396-6.5 1.5a49.248 49.248 0 0 0 0 14c.748 2.251 2.248 3.584 4.5 4v3h-2c-2.345-2.575-5.345-3.575-9-3-.067 1.459.266 2.792 1 4 .172.992-.162 1.658-1 2-.01-1.517-.677-2.684-2-3.5l-6-2.5c2.128-3.546 2.46-7.212 1-11l2-2c-.237 3.91.596 7.577 2.5 11 1.388 1.054 2.888 1.22 4.5.5 2.86-3.681 3.693-7.848 2.5-12.5-.383-.556-.883-.89-1.5-1l-2-2c3.003-.67 3.67-2.337 2-5z"/><path style="opacity:1" fill="#f19125" d="M54.5 27.5c-3.168 2.556-6.834 3.556-11 3-2.252-.416-3.752-1.749-4.5-4a49.248 49.248 0 0 1 0-14c1.808-1.896 3.975-2.396 6.5-1.5 8.9 2.778 9.066 4.278.5 4.5a12.5 12.5 0 0 0 0 7c1.698 4.366 3.865 4.866 6.5 1.5a12.215 12.215 0 0 1-3-4c2.04-3.345 4.874-4.178 8.5-2.5.27 3.8-.896 7.134-3.5 10z"/><path style="opacity:1" fill="#fef8f1" d="M14.5 23.5h5c-.047 6.047-3.047 9.047-9 9-.446-3.86.887-6.86 4-9z"/><path style="opacity:.679" fill="#209962" d="M63.5 23.5c6.49 13.184 2.49 21.184-12 24-3.985 5.169-9.318 7.335-16 6.5-4.136 6.57-10.136 9.736-18 9.5l11-5.5c2.04-2.185 3.374-4.685 4-7.5 3.773.237 7.44-.263 11-1.5 2.909-1.406 4.909-3.572 6-6.5h1c4.005-.056 7.505-1.39 10.5-4 2.236-4.723 3.069-9.723 2.5-15z"/><path style="opacity:1" fill="#f2942d" d="M55.5 39.5c-.992-2.638-1.992-5.305-3-8 .82-1.611 2.154-2.278 4-2 .72 1.817 1.72 2.484 3 2-2.534-3.305-2.368-6.305.5-9 3.246 4.636 3.246 9.303 0 14-.837-1.507-2.004-2.007-3.5-1.5 2.955 2.398 2.622 3.898-1 4.5z"/><path style="opacity:1" fill="#facea0" d="m54.5 27.5 2 2c-1.846-.278-3.18.389-4 2 1.008 2.695 2.008 5.362 3 8l-2 1-3 2h-1a25.936 25.936 0 0 0-3.5-9c-.67-.752-1.504-1.086-2.5-1v-2c4.166.556 7.832-.444 11-3z"/><path style="opacity:1" fill="#f2942c" d="M43.5 32.5c.996-.086 1.83.248 2.5 1a25.936 25.936 0 0 1 3.5 9c-1.25-.077-2.083-.744-2.5-2a8.434 8.434 0 0 0-.5 4c-.996.086-1.83-.248-2.5-1a50.441 50.441 0 0 1-.5-10v-1z"/><path style="opacity:1" fill="#f2942e" d="M53.5 40.5c-1.175.219-2.175-.114-3-1a12.8 12.8 0 0 0-3-6c.963-1.99 2.296-2.323 4-1a3.646 3.646 0 0 1-1 1.5c2.415 1.465 3.415 3.632 3 6.5z"/><path style="opacity:1" fill="#f19024" d="M41.5 33.5c.253 2.327-.414 4.327-2 6 2.116 1.9 3.45 4.233 4 7-1.068.934-2.401 1.268-4 1a10.1 10.1 0 0 0-1.5-6 16.603 16.603 0 0 0 .5 7c-1.599.268-2.932-.066-4-1 .318-4.532-.015-8.866-1-13-.734-1.208-1.067-2.541-1-4 3.655-.575 6.655.425 9 3z"/><path style="opacity:1" fill="#fce0c3" d="M35.5 33.5h3c-.746 3.81-1.746 3.81-3 0z"/><path style="opacity:1" fill="#face9f" d="M44.5 35.5c1.773.814 2.273 2.148 1.5 4-1.188-1.063-1.688-2.397-1.5-4z"/><path style="opacity:1" fill="#fef5ec" d="M21.5 36.5c4.009-.486 5.842 1.18 5.5 5-2.548 3.86-6.048 5.36-10.5 4.5-1.172-1.868-1.005-3.702.5-5.5a32.614 32.614 0 0 0 4.5-4z"/><path style="opacity:1" fill="#fcdab8" d="M41.5 33.5h2c-.165 3.35.002 6.683.5 10 .67.752 1.504 1.086 2.5 1-.79.901-1.79 1.568-3 2-.55-2.767-1.884-5.1-4-7 1.586-1.673 2.253-3.673 2-6z"/><path style="opacity:1" fill="#f8c58c" d="M33.5 34.5c.985 4.134 1.318 8.468 1 13l-2-5v-6c.838-.342 1.172-1.008 1-2z"/><path style="opacity:.952" fill="#f6f4ec" d="M37.5 8.5h-2a32.437 32.437 0 0 0-8 .5c-2.606 1.65-2.606 3.15 0 4.5l2 2c-1 .333-1.667 1-2 2l-2 2c-.359-1.871-1.359-3.371-3-4.5-4.21-1.02-7.877-.02-11 3C4.309 23.874 1.142 31.374 2 40.5c3.573 3.12 5.573 7.12 6 12 2.247 1.48 4.747 2.147 7.5 2 9.027.626 14.693-3.374 17-12l2 5c1.068.934 2.401 1.268 4 1a16.603 16.603 0 0 1-.5-7 10.1 10.1 0 0 1 1.5 6c1.599.268 2.932-.066 4-1 1.21-.432 2.21-1.099 3-2a8.434 8.434 0 0 1 .5-4c.417 1.256 1.25 1.923 2.5 2-1.091 2.928-3.091 5.094-6 6.5a27.876 27.876 0 0 1-11 1.5c-.626 2.815-1.96 5.315-4 7.5l-11 5.5c-.876.13-1.543-.203-2-1a493.061 493.061 0 0 0 3-4c.876.13 1.543-.203 2-1a25.87 25.87 0 0 0-10-1c-4.954-1.886-7.454-5.552-7.5-11-1.359-.865-2.526-1.865-3.5-3v-13c4.726-11.049 13.06-17.715 25-20 2.436-3.58 5.77-4.746 10-3.5 1.442.377 2.442 1.21 3 2.5z"/><path style="opacity:.513" fill="#05945b" d="M37.5 54.5c5.175.332 10.508.332 16 0v8c-3.921.57-6.088-1.097-6.5-5-.493 1.634-.66 3.3-.5 5h-3c.285-1.788-.048-3.455-1-5 .05 1.348-.283 2.848-1 4.5-1.634.493-3.3.66-5 .5.396-2.633.73-5.3 1-8z"/><path style="opacity:.464" fill="#06945b" d="M69.5 54.5v8c-5.15-.478-10.15-.478-15 0v-8c5.014.16 10.014.16 15 0z"/><path style="opacity:.548" fill="#219860" d="M10.5 56.5a25.87 25.87 0 0 1 10 1c-.457.797-1.124 1.13-2 1-3.053.39-5.72-.277-8-2z"/></svg>